<?xml version="1.0" encoding="UTF-8" standalone="no"?>
<!DOCTYPE svg PUBLIC "-//W3C//DTD SVG 1.1//EN" "http://www.w3.org/Graphics/SVG/1.1/DTD/svg11.dtd">
<!-- Created with Vectornator (http://vectornator.io/) -->
<svg height="100%" stroke-miterlimit="10" style="fill-rule:nonzero;clip-rule:evenodd;stroke-linecap:round;stroke-linejoin:round;" version="1.1" viewBox="0 0 35.731 35.731" width="100%" xml:space="preserve" xmlns="http://www.w3.org/2000/svg" xmlns:vectornator="http://vectornator.io" xmlns:xlink="http://www.w3.org/1999/xlink">
<defs/>
<g id="Layer-1" vectornator:layerName="Layer 1">
<g opacity="1" vectornator:layerName="Group 1">
<path d="M6.61146 17.8655C6.61146 11.6501 11.6501 6.61146 17.8655 6.61146C24.081 6.61146 29.1196 11.6501 29.1196 17.8655C29.1196 24.081 24.081 29.1196 17.8655 29.1196C11.6501 29.1196 6.61146 24.081 6.61146 17.8655Z" fill="#000000" fill-rule="nonzero" opacity="1" stroke="#ffffff" stroke-linecap="butt" stroke-linejoin="round" stroke-width="2" vectornator:layerName="Oval"/>
<path d="M17.7543 26.0146C13.254 25.9549 9.65366 22.2577 9.71339 17.7574C9.77311 13.2571 13.4703 9.65674 17.9706 9.71646C22.4709 9.77619 26.0712 13.4734 26.0115 17.9737C25.9518 22.474 22.2546 26.0743 17.7543 26.0146ZM21.0473 18.786C20.7853 18.517 20.3561 18.5113 20.087 18.7733L18.5092 20.3097L18.5956 13.8C18.6006 13.4251 18.3011 13.1169 17.9255 13.1119C17.55 13.1069 17.2424 13.4071 17.2374 13.782L17.151 20.2917L15.6146 18.7139C15.3526 18.4449 14.9234 18.4392 14.6543 18.7012C14.3853 18.9632 14.3796 19.3923 14.6416 19.6614L17.3219 22.4138C17.4525 22.548 17.6255 22.6168 17.7994 22.6191C17.9732 22.6214 18.1479 22.5572 18.2821 22.4265L21.0345 19.7462C21.3036 19.4842 21.3093 19.0551 21.0473 18.786Z" fill="#ff9a44" fill-rule="nonzero" opacity="1" stroke="none" vectornator:layerName="path"/>
</g>
</g>
</svg>
