<?xml version="1.0" encoding="UTF-8" standalone="no"?>
<!DOCTYPE svg PUBLIC "-//W3C//DTD SVG 1.1//EN" "http://www.w3.org/Graphics/SVG/1.1/DTD/svg11.dtd">
<!-- Created with Vectornator (http://vectornator.io/) -->
<svg height="100%" stroke-miterlimit="10" style="fill-rule:nonzero;clip-rule:evenodd;stroke-linecap:round;stroke-linejoin:round;" version="1.1" viewBox="0 0 56 56" width="100%" xml:space="preserve" xmlns="http://www.w3.org/2000/svg" xmlns:vectornator="http://vectornator.io" xmlns:xlink="http://www.w3.org/1999/xlink">
<defs/>
<g id="Layer-1" vectornator:layerName="Layer 1">
<g opacity="1" vectornator:layerName="Tilli">
<path d="M27.8372 8.19796C23.3535 8.19796 19.1511 8.43362 16.0008 8.85807C14.271 9.09111 12.9296 9.3481 11.9418 9.7113C11.0469 10.0403 10.0599 10.5931 10.0598 11.6987C10.0598 12.2286 10.3331 12.6789 10.6813 12.9873C11.0263 13.2929 11.4483 13.5015 11.9418 13.6825C12.9295 14.0447 14.2718 14.303 16.0008 14.5358C18.0021 14.8054 20.4557 14.9884 23.104 15.094C24.0005 15.7621 25.322 16.0934 26.7838 16.2071C26.7838 16.4419 26.7838 16.6219 26.7838 16.8391C26.7352 16.8828 26.6637 16.926 26.6293 16.9655C26.4648 17.1552 26.393 17.3493 26.3554 17.4536C26.3493 17.4707 26.3471 17.4891 26.3414 17.5063C26.149 17.5377 25.9628 17.5858 25.7866 17.6608C25.5326 17.7689 24.965 18.0555 24.965 18.7563C24.965 18.794 24.965 18.8598 24.965 18.9072C22.0393 18.9072 19.026 18.9072 17.3632 18.9072C16.7612 18.9072 16.1672 18.9985 15.583 19.1741C13.1676 19.8999 11.2913 22.0197 10.2283 24.75C9.60252 26.3574 9.26982 28.0961 9.26975 29.8869C9.26975 30.1381 9.28823 30.3776 9.30135 30.6207C8.63234 31.3523 7.51079 32.5802 6.91371 33.2331C6.69729 33.4698 6.6337 33.808 6.74868 34.1074C7.06996 34.944 7.71251 36.6171 8.03379 37.4536C8.14876 37.753 8.42388 37.9634 8.74306 37.9944C9.60157 38.0776 11.1812 38.2313 12.1771 38.3279C13.5639 39.8941 15.3694 40.8661 17.3632 40.8665C21.9446 40.8665 33.7262 40.8665 38.3077 40.8665C40.1379 40.8665 41.8098 40.0399 43.1427 38.6966C44.242 38.6115 46.0395 38.4729 47.0051 38.3981C47.3247 38.3734 47.6005 38.172 47.7214 37.875C48.1023 36.9383 48.8643 35.0651 49.2452 34.1285C49.366 33.8316 49.3091 33.4915 49.0978 33.2507C48.422 32.4807 47.1019 30.9778 46.3941 30.1713C46.3971 30.0747 46.4046 29.9878 46.4046 29.8869C46.4046 28.0998 46.0699 26.3608 45.4426 24.75C44.3806 22.0222 42.519 19.904 40.1125 19.1741C39.5245 18.9958 38.9177 18.9067 38.3077 18.9072C36.7701 18.9072 33.9653 18.9072 31.2782 18.9072C31.2782 18.8598 31.2782 18.794 31.2782 18.7563C31.2781 18.0712 30.7296 17.7786 30.4776 17.6678C30.2981 17.5888 30.107 17.5419 29.9088 17.5098C29.9005 17.4853 29.9007 17.4605 29.8913 17.436C29.8466 17.3201 29.7709 17.1348 29.6033 16.948C29.5531 16.8921 29.5048 16.8544 29.4559 16.8145C29.4559 16.5896 29.4559 16.4053 29.4559 16.165C30.7574 16.0207 31.922 15.696 32.7354 15.0835C35.3164 14.9762 37.7111 14.7997 39.6701 14.5358C41.3996 14.3027 42.7414 14.0447 43.7291 13.6825C44.6235 13.3545 45.6111 12.8049 45.6111 11.6987C45.6111 11.1689 45.341 10.7187 44.9931 10.41C44.6483 10.1041 44.2227 9.89282 43.7291 9.7113C42.7412 9.34811 41.3994 9.09082 39.6701 8.85807C36.5201 8.43371 32.3211 8.19701 27.8372 8.19796Z" fill="#000000" fill-rule="nonzero" opacity="1" stroke="#000000" stroke-linecap="butt" stroke-linejoin="miter" stroke-width="1.34832" vectornator:layerName="OutlineB"/>
<path d="M27.8372 9.04417C23.3843 9.04417 19.2077 9.28034 16.1132 9.69726C12.7092 10.1558 10.906 10.732 10.906 11.6987C10.906 12.6659 12.7092 13.2385 16.1132 13.6966C18.1464 13.9705 20.6706 14.1591 23.4095 14.2619C24.1819 14.9628 25.7709 15.3783 27.63 15.4171L27.63 17.3131C27.5615 17.3355 27.4886 17.3548 27.4369 17.3834C27.362 17.4247 27.3107 17.4717 27.2684 17.5203C27.214 17.583 27.1845 17.6527 27.1525 17.7415C27.097 17.895 27.0624 18.098 27.0612 18.3103L26.8435 18.3103C26.2854 18.3103 25.8112 18.5056 25.8112 18.7563L25.8112 19.7535C22.5654 19.7535 19.2111 19.7535 17.3632 19.7535C16.847 19.7535 16.3364 19.8316 15.8252 19.9852C13.7414 20.6114 12.0189 22.4853 11.0183 25.0554C10.4305 26.5653 10.116 28.2015 10.116 29.8869C10.116 30.2692 10.1354 30.6459 10.1651 31.021L10.0914 31.014L7.53871 33.8054L8.82382 37.1517L12.5879 37.5168C13.8806 39.0988 15.5556 40.0199 17.3632 40.0203C21.9446 40.0203 33.7262 40.0203 38.3077 40.0203C39.9708 40.0203 41.5189 39.2347 42.7635 37.8785L46.9383 37.5554L48.4622 33.809L45.6919 30.6523L45.5303 30.6664C45.5444 30.4078 45.5584 30.1497 45.5584 29.8869C45.5584 28.2061 45.2421 26.5695 44.6525 25.0554C43.6526 22.487 41.9424 20.6148 39.8667 19.9852C39.3575 19.8308 38.8336 19.753 38.3077 19.7535C36.585 19.7535 33.4253 19.7535 30.432 19.7535L30.432 18.7563C30.432 18.5107 29.9819 18.3107 29.4137 18.3103L29.1925 18.3103C29.1913 18.0987 29.1613 17.8974 29.1012 17.7415C29.067 17.6528 29.0313 17.5763 28.9748 17.5133C28.9313 17.4649 28.8676 17.4206 28.7922 17.3799C28.7422 17.3528 28.6737 17.3343 28.6097 17.3131L28.6097 15.3995C30.2967 15.3113 31.7114 14.9073 32.4229 14.2549C35.0978 14.1501 37.5645 13.9651 39.5577 13.6966C42.9617 13.238 44.7649 12.6654 44.7649 11.6987C44.7649 10.7315 42.9617 10.1553 39.5577 9.69726C36.4632 9.28037 32.2902 9.04317 27.8372 9.04417Z" fill="#ffffff" fill-rule="nonzero" opacity="1" stroke="#ffffff" stroke-linecap="butt" stroke-linejoin="miter" stroke-width="1.34832" vectornator:layerName="OutlineW"/>
<g opacity="1" vectornator:layerName="Ground Shadow">
<path d="M23.6788 45.9535C23.3897 45.9535 23.1687 46.354 23.1687 46.8778C23.1687 47.4015 23.3897 47.802 23.6788 47.802L31.9935 47.802C32.2826 47.802 32.5036 47.4015 32.5036 46.8778C32.5036 46.354 32.2826 45.9535 31.9935 45.9535L23.6788 45.9535Z" fill="#ffffff" fill-rule="nonzero" opacity="1" stroke="#000000" stroke-linecap="butt" stroke-linejoin="miter" stroke-width="1.34832"/>
<path d="M20.4212 42.4798C19.8974 42.4798 19.4969 42.8803 19.4969 43.404C19.4969 43.9278 19.8974 44.3283 20.4212 44.3283L35.4864 44.3283C36.0102 44.3283 36.4107 43.9278 36.4107 43.404C36.4107 42.8803 36.0102 42.4798 35.4864 42.4798L20.4212 42.4798Z" fill="#ffffff" fill-rule="nonzero" opacity="1" stroke="#000000" stroke-linecap="butt" stroke-linejoin="miter" stroke-width="1.34832"/>
</g>
<g opacity="1" vectornator:layerName="Stabilizers">
<path d="M12.2456 36.6254L9.43243 36.3514L8.52634 33.9913L10.4334 31.9051L13.2466 32.1791L14.1527 34.5392L12.2456 36.6254Z" fill="#000000" fill-rule="nonzero" opacity="1" stroke="#000000" stroke-linecap="butt" stroke-linejoin="miter" stroke-width="1.70824"/>
<path d="M43.2675 36.6069L41.4023 34.4831L42.3553 32.1415L45.1734 31.9236L47.0385 34.0474L46.0856 36.389L43.2675 36.6069Z" fill="#000000" fill-rule="nonzero" opacity="1" stroke="#000000" stroke-linecap="butt" stroke-linejoin="miter" stroke-width="2.45679" vectornator:layerName="Polygon"/>
</g>
<path d="M17.3647 20.7276C16.9329 20.7276 16.512 20.7958 16.1041 20.9184C14.3056 21.4588 12.8104 23.1442 11.9287 25.409C11.4107 26.7394 11.0883 28.2557 11.0883 29.8869C11.0883 34.9251 13.9105 39.0463 17.3647 39.0463L38.3076 39.0463C41.7618 39.0463 44.584 34.9251 44.584 29.8869C44.584 28.2557 44.2616 26.7394 43.7436 25.409C42.8637 23.1489 41.3749 21.4624 39.5813 20.9184C39.17 20.7936 38.7434 20.7276 38.3076 20.7276L17.3647 20.7276Z" fill="#ffffff" fill-rule="nonzero" opacity="1" stroke="#000000" stroke-linecap="butt" stroke-linejoin="miter" stroke-width="1.90542" vectornator:layerName="Head"/>
<path d="M21.2514 35.0518L34.4209 35.0518C35.146 35.0518 35.7338 35.4379 35.7338 35.9143L35.7338 35.9143C35.7338 36.3906 35.146 36.7768 34.4209 36.7768L21.2514 36.7768C20.5263 36.7768 19.9385 36.3906 19.9385 35.9143L19.9385 35.9143C19.9385 35.4379 20.5263 35.0518 21.2514 35.0518Z" fill="#000000" fill-rule="nonzero" opacity="1" stroke="#000000" stroke-linecap="butt" stroke-linejoin="miter" stroke-width="1.05104" vectornator:layerName="Mouth"/>
<path d="M36.7423 22.6275L19.3333 22.6275C16.4608 22.6275 14.1106 25.1861 14.1106 28.3134C14.1106 31.4406 16.4608 33.9992 19.3333 33.9992L36.7423 33.9992C39.6148 33.9992 41.965 31.4406 41.965 28.3134C41.965 25.1861 39.6148 22.6275 36.7423 22.6275Z" fill="#000000" fill-rule="nonzero" opacity="1" stroke="none" vectornator:layerName="Face"/>
<path d="M19.9385 31.517C18.1551 31.517 16.7076 30.0696 16.7076 28.2862C16.7076 26.5027 18.1551 25.0553 19.9385 25.0553C21.722 25.0553 23.1694 26.5027 23.1694 28.2862C23.1694 30.0696 21.7284 31.517 19.9385 31.517Z" fill="#ffac00" fill-rule="nonzero" opacity="1" stroke="#ffffff" stroke-linecap="butt" stroke-linejoin="miter" stroke-width="0.681127" vectornator:layerName="Left Eye"/>
<path d="M35.7338 31.517C33.9503 31.517 32.5029 30.0696 32.5029 28.2862C32.5029 26.5027 33.9503 25.0553 35.7338 25.0553C37.5172 25.0553 38.9647 26.5027 38.9647 28.2862C38.9647 30.0696 37.5237 31.517 35.7338 31.517Z" fill="#ffac00" fill-rule="nonzero" opacity="1" stroke="#ffffff" stroke-linecap="butt" stroke-linejoin="miter" stroke-width="0.681127" vectornator:layerName="Right Eye"/>
<g opacity="1" vectornator:layerName="Propmount">
<path d="M28.1329 16.2107C27.8042 16.2107 27.5522 16.2825 27.3835 16.3756C27.3016 16.4209 27.2461 16.4688 27.1997 16.5223C27.1402 16.5909 27.1076 16.6695 27.0725 16.7667C27.0117 16.9348 26.9748 17.1576 26.9735 17.3899L26.7331 17.3899C26.122 17.3899 25.602 17.6044 25.602 17.8787L25.602 20.3838C25.602 20.658 26.122 20.8665 26.7331 20.8665L29.5468 20.8665C30.169 20.8665 30.6638 20.6527 30.6638 20.3838L30.6638 17.8787C30.6637 17.6098 30.169 17.3899 29.5468 17.3899L29.3064 17.3899C29.305 17.1582 29.2733 16.9374 29.2075 16.7667C29.17 16.6695 29.128 16.5849 29.0661 16.5162C29.0184 16.4632 28.9506 16.4142 28.8681 16.3695C28.699 16.2779 28.4587 16.2107 28.1329 16.2107Z" fill="#000000" fill-rule="nonzero" opacity="1" stroke="none"/>
<path d="M28.1214 20.7276L28.1214 12.6177" fill="none" opacity="1" stroke="#000000" stroke-linecap="butt" stroke-linejoin="miter" stroke-width="0.979964"/>
</g>
<g opacity="1" vectornator:layerName="Propeller">
<path d="M23.4444 13.2696C23.4444 12.3782 25.4452 11.6557 27.9133 11.6557C30.3814 11.6557 32.3822 12.3782 32.3822 13.2696C32.3822 14.1609 30.3814 14.8835 27.9133 14.8835C25.4452 14.8835 23.4444 14.1609 23.4444 13.2696Z" fill="#ffffff" fill-rule="nonzero" opacity="1" stroke="#000000" stroke-linecap="butt" stroke-linejoin="miter" stroke-width="1.08514"/>
<path d="M11.3395 11.6984C11.3395 10.4709 18.7253 9.47592 27.8362 9.47592C36.947 9.47592 44.3328 10.4709 44.3328 11.6984C44.3328 12.9258 36.947 13.9208 27.8362 13.9208C18.7253 13.9208 11.3395 12.9258 11.3395 11.6984Z" fill="#82a7b8" fill-rule="nonzero" opacity="1" stroke="#000000" stroke-linecap="butt" stroke-linejoin="miter" stroke-width="0.864475"/>
<path d="M25.075 11.6271C25.075 11.0215 26.4344 10.5305 28.1115 10.5305C29.7885 10.5305 31.1479 11.0215 31.1479 11.6271C31.1479 12.2327 29.7885 12.7237 28.1115 12.7237C26.4344 12.7237 25.075 12.2327 25.075 11.6271Z" fill="#000000" fill-rule="nonzero" opacity="1" stroke="#ffffff" stroke-linecap="butt" stroke-linejoin="miter" stroke-width="0.737315"/>
</g>
</g>
</g>
</svg>
