<?xml version="1.0" encoding="UTF-8" standalone="no"?>
<!DOCTYPE svg PUBLIC "-//W3C//DTD SVG 1.1//EN" "http://www.w3.org/Graphics/SVG/1.1/DTD/svg11.dtd">
<!-- Created with Vectornator (http://vectornator.io/) -->
<svg height="100%" stroke-miterlimit="10" style="fill-rule:nonzero;clip-rule:evenodd;stroke-linecap:round;stroke-linejoin:round;" version="1.1" viewBox="0 0 56 56" width="100%" xml:space="preserve" xmlns="http://www.w3.org/2000/svg" xmlns:vectornator="http://vectornator.io" xmlns:xlink="http://www.w3.org/1999/xlink">
<defs/>
<g id="Layer-1" vectornator:layerName="Layer 1">
<g opacity="1" vectornator:layerName="Astro">
<path d="M47.1862 3.85625C45.2181 3.87022 43.6355 5.47972 43.6497 7.44534C43.659 8.75227 44.3762 9.87566 45.4255 10.4863C45.4443 16.8538 45.4691 25.6578 45.4893 32.3175C45.2778 32.2582 45.0511 32.192 44.8285 32.1298C44.4392 26.6977 40.421 20.8453 34.2377 18.8471C34.2237 18.8426 34.2105 18.8366 34.1964 18.8321C34.1819 18.8261 34.17 18.8218 34.1551 18.8171C34.1536 18.8166 34.1529 18.8138 34.1513 18.8133C33.0036 18.4365 31.803 18.2201 30.5698 18.0812C30.486 17.8015 30.362 17.4961 30.0892 17.1952C29.4954 16.5401 28.6895 16.4375 28.0356 16.4256C27.2795 16.4118 26.4954 16.5575 25.8844 17.0863C25.5553 17.3708 25.361 17.724 25.2537 18.085C24.0116 18.224 22.7938 18.4385 21.6421 18.8171C17.347 20.1866 14.0692 23.4391 12.3239 27.1215C12.345 26.9652 12.3577 26.807 12.3577 26.6448C12.3577 24.6754 10.7592 23.0781 8.79116 23.0782C6.82177 23.0782 5.2246 24.6767 5.22459 26.6448C5.22459 27.9696 5.95263 29.1137 7.02289 29.727C7.02289 31.1139 7.02289 32.7786 7.02289 34.5625C6.29743 35.2594 5.92666 36.2839 5.92664 37.337C5.92664 38.7775 5.92664 41.6592 5.92664 43.0998C5.92664 44.5099 6.56081 45.935 7.92392 46.4974C8.01224 46.5339 8.00278 46.5237 8.00276 46.5237C8.00344 46.5239 8.00582 46.5235 8.00651 46.5237C8.74576 46.7591 9.87055 47.1185 10.9611 47.466C10.9611 47.5678 10.9611 47.6774 10.9611 47.7476C10.9611 50.5437 13.6714 52.1437 16.142 52.1439C22.041 52.1439 33.8388 52.1439 39.7377 52.1439C42.2609 52.1439 44.8811 50.4807 44.8811 47.7476C44.8811 47.3716 44.8811 46.6954 44.8811 46.0807C46.0864 45.7294 47.3405 45.3651 48.1586 45.1271C48.1736 45.1227 48.2019 45.1129 48.2337 45.1008C48.2374 45.0994 48.2413 45.0985 48.2449 45.0971C49.5772 44.587 50.2689 43.2139 50.261 41.8196C50.2536 40.4471 50.2387 37.7046 50.2309 36.3308C50.2309 36.3307 50.2309 36.3271 50.2309 36.3271C50.2243 35.2794 49.7985 34.2939 49.0258 33.6315C49.0061 26.966 48.9782 17.2793 48.9582 10.5126C50.0467 9.89592 50.7848 8.7325 50.7753 7.39278C50.7613 5.42468 49.1519 3.84197 47.1862 3.85625ZM11.6519 28.7584C11.176 30.1614 10.9203 31.5957 10.9198 32.9857C10.9198 32.987 10.9198 32.9883 10.9198 32.9895C10.8027 33.0268 10.6762 33.0662 10.5632 33.1021C10.5632 31.8716 10.5632 30.6957 10.5632 29.7233C10.989 29.4784 11.3598 29.1506 11.6519 28.7584Z" fill="#000000" fill-rule="nonzero" opacity="1" stroke="#000000" stroke-linecap="round" stroke-linejoin="miter" stroke-width="0.961097"/>
<path d="M47.1899 4.42314C45.5368 4.43487 44.2046 5.78905 44.2166 7.4414C44.2252 8.65361 44.9561 9.68543 45.9953 10.1489C46.0149 16.7496 46.042 26.2454 46.0627 33.0667C45.43 32.8902 44.9443 32.7532 44.2952 32.5724C44.0979 27.2422 40.1313 21.3032 33.9822 19.3572C33.979 19.3562 33.9778 19.3548 33.9747 19.3534C32.7537 18.9526 31.466 18.7187 30.1214 18.5895C30.0626 18.2728 29.9771 17.9191 29.6682 17.5784C29.2402 17.1062 28.6401 17.0055 28.0243 16.9942C27.3397 16.9818 26.7177 17.1159 26.2568 17.5148C25.9194 17.8063 25.7621 18.1962 25.725 18.5895C24.3657 18.7187 23.0486 18.953 21.8193 19.3572C15.5455 21.3559 11.4877 27.558 11.4875 32.988C11.4875 33.091 11.4875 33.2487 11.4875 33.4C11.4875 33.4013 11.4875 33.4024 11.4875 33.4037C10.9385 33.5787 10.5361 33.7062 9.99335 33.8793C9.99335 32.1942 9.99335 30.6327 9.99335 29.3856C11.0507 28.9225 11.7908 27.8714 11.7908 26.6445C11.7908 24.9896 10.4456 23.6449 8.79129 23.6449C7.13642 23.6449 5.79175 24.9902 5.79175 26.6445C5.79175 27.8719 6.53195 28.9226 7.58923 29.3856C7.58923 30.8842 7.58923 32.7852 7.58923 34.7855C6.87867 35.3326 6.49577 36.2989 6.49576 37.3357C6.49576 38.7762 6.49576 41.6582 6.49576 43.0989C6.49576 44.3605 7.05732 45.5245 8.1397 45.9711C8.15206 45.9762 8.16445 45.9782 8.17715 45.9823C9.01479 46.249 10.2982 46.6574 11.5287 47.0496C11.5287 47.2409 11.5287 47.572 11.5287 47.7461C11.5287 50.1037 13.8494 51.5768 16.1422 51.577C22.0412 51.577 33.8389 51.577 39.7379 51.577C42.065 51.577 44.3139 50.0524 44.3139 47.7461C44.3139 47.2744 44.3139 46.3886 44.3139 45.6565C45.6608 45.2644 47.0778 44.8497 47.9988 44.5818C48.0107 44.5783 48.0215 44.5749 48.0325 44.5705C49.0926 44.1696 49.6984 43.049 49.6914 41.8219C49.684 40.4485 49.6692 37.7048 49.6614 36.3321C49.656 35.324 49.2277 34.4073 48.4594 33.8793C48.4393 27.1126 48.4122 17.0182 48.392 10.1713C49.4662 9.70887 50.217 8.63732 50.2082 7.39646C50.1964 5.74333 48.8422 4.41115 47.1899 4.42314Z" fill="#ffffff" fill-rule="nonzero" opacity="1" stroke="#ffffff" stroke-linecap="round" stroke-linejoin="miter" stroke-width="0.720823" vectornator:layerName="Outline"/>
<g opacity="1" vectornator:layerName="Head">
<g opacity="1" vectornator:layerName="Head">
<path d="M28.0042 18.4843C26.9036 18.4643 26.5048 18.952 26.6238 19.5341C26.624 19.5349 26.6058 19.8032 26.5966 19.9499C25.0749 20.0473 23.6216 20.2827 22.302 20.7168C16.6201 22.523 12.9291 28.19 12.9291 33.0516C12.9291 33.3183 12.9291 33.8518 12.9291 34.1184C12.9291 34.2189 12.9462 34.3119 12.9734 34.4013C12.9726 34.4113 12.9665 34.4183 12.9665 34.4286C12.9665 37.6337 12.9665 44.0457 12.9665 47.2508C12.9665 48.8903 14.6431 50.1207 16.5862 50.1207C22.262 50.1207 33.6135 50.1207 39.2893 50.1207C41.2391 50.1207 42.8715 48.8567 42.8714 47.2508C42.8714 44.0458 42.8714 33.3183 42.8714 33.0516C42.8714 28.1894 39.2171 22.5226 33.4985 20.7168C32.1872 20.2855 30.7748 20.0518 29.2653 19.9533C29.2453 19.533 29.2833 19.7087 29.2892 19.6261C29.2892 19.6259 29.2891 19.623 29.2892 19.6227C29.1484 18.8649 29.0743 18.5038 28.0042 18.4843Z" fill="#ffffff" fill-rule="nonzero" opacity="1" stroke="#000000" stroke-linecap="round" stroke-linejoin="miter" stroke-width="1.97982" vectornator:layerName="Curve"/>
<path d="M27.9557 24.9554C26.7849 24.946 25.8455 23.3616 25.8611 21.4227C25.8767 19.4839 26.8415 17.9148 28.0123 17.9243C29.1832 17.9337 30.1226 19.5181 30.107 21.4569C30.0914 23.3958 29.1265 24.9648 27.9557 24.9554Z" fill="#000000" fill-rule="nonzero" opacity="1" stroke="none"/>
</g>
<path d="M33.8583 50.1207L28.2548 50.1207L22.4304 50.1207C21.0803 50.1207 19.9816 49.3507 19.9816 48.4046C19.9816 47.4585 21.0803 46.6886 22.4304 46.6886L33.8583 46.6886C35.2085 46.6886 36.3072 47.4585 36.3072 48.4046C36.3072 49.3507 35.2085 50.1207 33.8583 50.1207Z" fill="#000000" fill-rule="nonzero" opacity="1" stroke="#000000" stroke-linecap="butt" stroke-linejoin="miter" stroke-width="1.53319" vectornator:layerName="Mouth"/>
</g>
<g opacity="1" vectornator:layerName="LeftAntenna">
<path d="M13.6458 47.2789L8.27468 45.5686C7.42793 45.2192 6.9256 44.275 6.9256 43.1376L6.9256 37.3607C6.9256 36.2233 7.42793 35.2791 8.2058 34.9557L13.6458 33.2202L13.6458 47.2789Z" fill="#000000" fill-rule="nonzero" opacity="1" stroke="none"/>
<path d="M8.02203 28.7991L9.46367 28.7991L9.46367 38.8795L8.02203 38.8795L8.02203 28.7991Z" fill="#000000" fill-rule="nonzero" opacity="1" stroke="none"/>
<path d="M8.74285 29.1623C7.35148 29.1623 6.21997 28.0308 6.21997 26.6394C6.21997 25.2481 7.35148 24.1166 8.74285 24.1166C10.1342 24.1166 11.2657 25.2481 11.2657 26.6394C11.2657 28.0308 10.1342 29.1623 8.74285 29.1623Z" fill="#000000" fill-rule="nonzero" opacity="1" stroke="none"/>
</g>
<g opacity="1" vectornator:layerName="RightAntenna">
<path d="M42.0066 45.8477L41.9341 32.4445L47.6659 34.0442C48.5699 34.3724 49.11 35.2697 49.1158 36.3541L49.1456 41.8615C49.1515 42.9459 48.6211 43.8489 47.794 44.1618L42.0066 45.8477Z" fill="#000000" fill-rule="nonzero" opacity="1" stroke="none"/>
<path d="M46.4001 6.68021L47.8417 6.67069L48.0397 36.6597L46.5981 36.6692L46.4001 6.68021Z" fill="#000000" fill-rule="nonzero" opacity="1" stroke="none"/>
<path d="M47.1573 9.88891C45.766 9.89879 44.6265 8.77534 44.6166 7.384C44.6067 5.99267 45.7302 4.85315 47.1215 4.84328C48.5129 4.8334 49.6524 5.95685 49.6622 7.34818C49.6721 8.73951 48.5487 9.87903 47.1573 9.88891Z" fill="#000000" fill-rule="nonzero" opacity="1" stroke="none" vectornator:layerName="Curve"/>
</g>
<g opacity="1" vectornator:layerName="LeftEye">
<path d="M20.9603 40.2918C18.1806 40.2918 15.9201 38.0313 15.9201 35.2516C15.9201 32.472 18.1806 30.2115 20.9603 30.2115C23.74 30.2115 26.0005 32.472 26.0005 35.2516C26.0005 38.0313 23.74 40.2918 20.9603 40.2918Z" fill="#ffac00" fill-rule="nonzero" opacity="1" stroke="#000000" stroke-linecap="butt" stroke-linejoin="miter" stroke-width="0.989908"/>
<path d="M20.9603 31.8915C19.1072 31.8915 17.6002 33.3985 17.6002 35.2516C17.6002 37.1047 19.1072 38.6117 20.9603 38.6117C22.8134 38.6117 24.3204 37.1047 24.3204 35.2516C24.3204 33.3985 22.8134 31.8915 20.9603 31.8915Z" fill="#000000" fill-rule="nonzero" opacity="1" stroke="none"/>
</g>
<g opacity="1" vectornator:layerName="RightEye">
<path d="M35.4018 38.3512C33.8163 38.3512 32.5269 37.0618 32.5269 35.4763C32.5269 33.8908 33.8163 32.6015 35.4018 32.6015C36.9872 32.6015 38.2766 33.8908 38.2766 35.4763C38.2766 37.0618 36.9872 38.3512 35.4018 38.3512Z" fill="#000000" fill-rule="nonzero" opacity="1" stroke="#000000" stroke-linecap="round" stroke-linejoin="miter" stroke-width="0.989908"/>
<path d="M35.3751 33.7418C34.4185 33.7418 33.6406 34.5197 33.6406 35.4763C33.6406 36.4329 34.4185 37.2108 35.3751 37.2108C36.3317 37.2108 37.1097 36.4329 37.1097 35.4763C37.1097 34.5197 36.3317 33.7418 35.3751 33.7418Z" fill="#ffac00" fill-rule="nonzero" opacity="1" stroke="none"/>
</g>
</g>
</g>
</svg>
