<?xml version="1.0" encoding="UTF-8" standalone="no"?>
<!DOCTYPE svg PUBLIC "-//W3C//DTD SVG 1.1//EN" "http://www.w3.org/Graphics/SVG/1.1/DTD/svg11.dtd">
<!-- Created with Vectornator (http://vectornator.io/) -->
<svg height="100%" stroke-miterlimit="10" style="fill-rule:nonzero;clip-rule:evenodd;stroke-linecap:round;stroke-linejoin:round;" version="1.1" viewBox="0 0 56 56" width="100%" xml:space="preserve" xmlns="http://www.w3.org/2000/svg" xmlns:vectornator="http://vectornator.io" xmlns:xlink="http://www.w3.org/1999/xlink">
<defs/>
<g id="Layer-1" vectornator:layerName="Layer 1">
<g opacity="1" vectornator:layerName="Tapehead">
<g opacity="1" vectornator:layerName="Outline">
<path d="M28.7742 8.10412C22.6187 8.10412 18.2078 10.4318 15.5683 14.4956C14.5449 16.0712 13.8432 17.853 13.4264 19.6423C11.0811 20.3327 9.36431 22.469 9.36435 25.0447C9.36435 29.3421 9.36435 37.9369 9.36435 42.2342C9.36435 45.3685 11.892 47.8959 15.026 47.8959C21.513 47.8959 34.487 47.8959 40.974 47.8959C44.1082 47.8959 46.6358 45.3683 46.6357 42.2342C46.6357 37.9369 46.6357 29.3421 46.6357 25.0447C46.6357 22.6159 45.1025 20.5909 42.9658 19.7855C42.9119 18.6886 42.8156 17.8839 42.6111 17.1627C42.3476 16.234 41.9015 15.4868 41.2366 14.9799C40.5716 14.473 39.7266 14.2366 38.7366 14.2364C36.8836 14.2364 35.6656 14.4183 33.9788 14.864C33.8624 14.8947 33.4243 15.014 33.3206 15.0413C31.3629 15.5591 29.9207 15.7675 27.2428 15.7678C26.6133 15.7678 26.3203 15.6235 26.2231 15.5325C26.2068 15.5167 26.2088 15.5189 26.2026 15.5086C26.2322 15.4898 26.2696 15.4603 26.4106 15.4199C26.7561 15.321 27.4184 15.2334 28.4434 15.1675C28.4458 15.1676 28.4536 15.1675 28.4536 15.1675C28.4568 15.1674 28.4607 15.1677 28.4638 15.1675C28.466 15.1674 28.4685 15.1677 28.4707 15.1675C29.8275 15.0812 30.4511 15.0141 31.1344 14.7958C31.6912 14.6181 32.1791 14.3401 32.5293 13.9329C32.8817 13.5232 33.0717 12.9972 33.0716 12.4015C33.0716 9.94288 31.2843 8.10409 28.7742 8.10412ZM28.7742 10.5666C29.3724 10.5666 29.8165 10.7608 30.118 11.0645C30.4109 11.3596 30.5953 11.7904 30.6057 12.3538C30.5858 12.3683 30.5294 12.4102 30.3704 12.4561C30.022 12.5566 29.3549 12.6422 28.3138 12.7085C28.3006 12.7093 28.2893 12.7099 28.2763 12.7119L28.2626 12.7153L28.2592 12.7153C26.9397 12.7999 26.3186 12.8668 25.6467 13.0802C25.0908 13.2565 24.6051 13.5307 24.2551 13.9363C23.9026 14.3448 23.7128 14.8711 23.7128 15.4643C23.7128 16.1317 23.9925 16.815 24.5416 17.3299C25.193 17.9397 26.1221 18.2262 27.2428 18.2269C30.1059 18.2269 31.8152 17.9869 33.9515 17.4219C34.0617 17.3929 34.4982 17.2778 34.6098 17.248C36.137 16.8445 37.0878 16.6952 38.7366 16.6955C39.2586 16.6955 39.5512 16.7883 39.7428 16.9342C39.9349 17.0805 40.1006 17.3374 40.2407 17.8312C40.3548 18.2334 40.4252 18.7385 40.4761 19.3831C34.1342 19.3831 22.4388 19.3831 16.0424 19.3831C16.4088 18.1342 16.9316 16.9135 17.6317 15.836C19.7954 12.5049 23.3718 10.5666 28.7742 10.5666Z" fill="none" opacity="1" stroke="#000000" stroke-linecap="butt" stroke-linejoin="round" stroke-width="1.7153"/>
<path d="M28.7742 8.56797C22.7398 8.56797 18.5016 10.8304 15.9571 14.748C14.9189 16.3463 14.2083 18.1757 13.8118 20.0038C11.5254 20.5503 9.82814 22.5871 9.82819 25.0447L9.82819 42.2342C9.82819 45.1119 12.1484 47.432 15.026 47.432L40.974 47.432C43.8516 47.432 46.1719 45.1119 46.1718 42.2342L46.1718 25.0447C46.1718 22.7104 44.635 20.7658 42.5224 20.1061C42.4737 18.8341 42.3752 18.0324 42.1643 17.2889C41.6752 15.5649 40.5733 14.7005 38.7366 14.7003C36.9129 14.7003 35.7636 14.8741 34.0982 15.3142C33.9854 15.344 33.5476 15.4631 33.4399 15.4915C31.4544 16.0166 29.9431 16.2314 27.2428 16.2316C26.5602 16.2316 26.1362 16.0891 25.9059 15.8735C25.7718 15.7479 25.7115 15.5955 25.7115 15.4643C25.7115 15.0333 26.3312 14.8374 28.4331 14.7037C28.4375 14.7034 28.4355 14.704 28.44 14.7037C29.7979 14.6173 30.3715 14.5514 30.9945 14.3524C31.9932 14.0338 32.6079 13.3943 32.6078 12.4015C32.6078 10.1863 31.0307 8.56794 28.7742 8.56797ZM28.7742 10.1027C30.1754 10.1027 31.073 11.0239 31.073 12.4015C31.073 12.8423 30.4513 13.0383 28.3445 13.1723C28.3402 13.1726 28.3386 13.1754 28.3342 13.1757C26.9746 13.2622 26.4071 13.3265 25.7865 13.5236C24.7895 13.8397 24.1766 14.4753 24.1767 15.4643C24.1767 16.0035 24.4019 16.5646 24.8588 16.9922C25.3973 17.4964 26.1962 17.7624 27.2428 17.763C30.0822 17.763 31.7243 17.5292 33.8322 16.9717C33.9425 16.9426 34.3804 16.8271 34.4904 16.7978C36.037 16.3891 37.0588 16.2314 38.7366 16.2316C39.8761 16.2316 40.3822 16.6293 40.6875 17.705C40.8444 18.258 40.932 18.8808 40.9808 19.8469C40.9785 19.8469 40.9763 19.8469 40.974 19.8469L15.425 19.8469C15.7996 18.3549 16.4024 16.8772 17.2429 15.5836C19.5026 12.1047 23.2546 10.1027 28.7742 10.1027Z" fill="none" opacity="1" stroke="#ffffff" stroke-linecap="butt" stroke-linejoin="round" stroke-width="1.11449"/>
</g>
<path d="M40.9723 46.4501L15.0264 46.4501C12.6913 46.4501 10.8102 44.569 10.8102 42.2339L10.8102 25.0448C10.8102 22.7096 12.6913 20.8286 15.0264 20.8286L40.9723 20.8286C43.3074 20.8286 45.1885 22.7096 45.1885 25.0448L45.1885 42.2339C45.1885 44.569 43.3074 46.4501 40.9723 46.4501Z" fill="#ffffff" fill-rule="nonzero" opacity="1" stroke="#000000" stroke-linecap="butt" stroke-linejoin="round" stroke-width="1.96452" vectornator:layerName="Head"/>
<path d="M28.7742 8.56797C22.7398 8.56797 18.5018 10.8304 15.9571 14.748C14.2951 17.3067 13.4782 20.4587 13.4332 23.2473C13.433 23.2562 13.4298 23.2621 13.4298 23.2712L13.4298 23.2882L13.4298 31.3168L14.9612 31.3168L14.9612 24.3762C14.9659 24.3359 14.9825 24.3042 14.9816 24.2603L14.9816 24.233C14.823 21.5135 15.5558 18.1809 17.2429 15.5836C19.5026 12.1047 23.2546 10.1027 28.7742 10.1027C30.1754 10.1027 31.073 11.0239 31.073 12.4015C31.073 12.8423 30.4513 13.0383 28.3445 13.1723C28.3402 13.1726 28.3386 13.1754 28.3342 13.1757C26.9746 13.2622 26.4072 13.3268 25.7865 13.5236C24.7895 13.8397 24.1767 14.4753 24.1767 15.4643C24.1767 16.0035 24.4019 16.5644 24.8588 16.9922C25.3973 17.4964 26.1962 17.763 27.2428 17.763C30.0822 17.763 31.7243 17.5292 33.8322 16.9717C33.9425 16.9426 34.3806 16.8269 34.4904 16.7978C36.037 16.3891 37.0587 16.2316 38.7366 16.2316C39.8761 16.2316 40.3824 16.6293 40.6875 17.705C40.9837 18.7491 41.04 19.934 41.0354 23.5099C41.0349 23.8774 41.0354 32.323 41.0354 32.323L42.5668 32.323C42.5668 32.323 42.5663 23.8767 42.5668 23.5099C42.5716 19.7501 42.5172 18.533 42.1643 17.2889C41.6752 15.5649 40.5733 14.7003 38.7366 14.7003C36.9129 14.7003 35.7636 14.8741 34.0982 15.3142C33.9854 15.344 33.5475 15.4631 33.4399 15.4915C31.4544 16.0166 29.943 16.2316 27.2428 16.2316C26.5602 16.2316 26.136 16.0891 25.9059 15.8735C25.7718 15.7479 25.7115 15.5955 25.7115 15.4643C25.7115 15.0333 26.3312 14.8374 28.4331 14.7037C28.4375 14.7034 28.4356 14.704 28.44 14.7037C29.7979 14.6173 30.3715 14.5512 30.9945 14.3524C31.9932 14.0338 32.6078 13.394 32.6078 12.4015C32.6078 10.1863 31.0307 8.56795 28.7742 8.56797Z" fill="#000000" fill-rule="nonzero" opacity="1" stroke="none" vectornator:layerName="Tape"/>
<g opacity="1" vectornator:layerName="Mouth">
<path d="M33.7914 40.5603L33.7914 40.5603C34.0575 40.5603 34.2731 40.7511 34.2731 40.9863L34.2731 42.4536C34.2731 42.6889 34.0575 42.8797 33.7914 42.8797L33.7914 42.8797C33.5254 42.8797 33.3098 42.6889 33.3098 42.4536L33.3098 40.9863C33.3098 40.7511 33.5254 40.5603 33.7914 40.5603Z" fill="#000000" fill-rule="nonzero" opacity="1" stroke="#000000" stroke-linecap="butt" stroke-linejoin="round" stroke-width="0.579663"/>
<path d="M31.7961 40.5603L31.7961 40.5603C32.0621 40.5603 32.2777 40.7511 32.2777 40.9863L32.2777 42.4536C32.2777 42.6889 32.0621 42.8797 31.7961 42.8797L31.7961 42.8797C31.5301 42.8797 31.3144 42.6889 31.3144 42.4536L31.3144 40.9863C31.3144 40.7511 31.5301 40.5603 31.7961 40.5603Z" fill="#000000" fill-rule="nonzero" opacity="1" stroke="#000000" stroke-linecap="butt" stroke-linejoin="round" stroke-width="0.579663"/>
<path d="M29.8535 40.5603L29.8535 40.5603C30.1195 40.5603 30.3352 40.7511 30.3352 40.9863L30.3352 42.4536C30.3352 42.6889 30.1195 42.8797 29.8535 42.8797L29.8535 42.8797C29.5875 42.8797 29.3719 42.6889 29.3719 42.4536L29.3719 40.9863C29.3719 40.7511 29.5875 40.5603 29.8535 40.5603Z" fill="#000000" fill-rule="nonzero" opacity="1" stroke="#000000" stroke-linecap="butt" stroke-linejoin="round" stroke-width="0.579663"/>
<path d="M27.8425 40.5603L27.8425 40.5603C27.5765 40.5603 27.3608 40.7511 27.3608 40.9863L27.3608 42.4536C27.3608 42.6889 27.5765 42.8797 27.8425 42.8797L27.8425 42.8797C28.1085 42.8797 28.3241 42.6889 28.3241 42.4536L28.3241 40.9863C28.3241 40.7511 28.1085 40.5603 27.8425 40.5603Z" fill="#000000" fill-rule="nonzero" opacity="1" stroke="#000000" stroke-linecap="butt" stroke-linejoin="round" stroke-width="0.579663"/>
<path d="M25.8999 40.5603L25.8999 40.5603C25.6339 40.5603 25.4182 40.7511 25.4182 40.9863L25.4182 42.4536C25.4182 42.6889 25.6339 42.8797 25.8999 42.8797L25.8999 42.8797C26.1659 42.8797 26.3816 42.6889 26.3816 42.4536L26.3816 40.9863C26.3816 40.7511 26.1659 40.5603 25.8999 40.5603Z" fill="#000000" fill-rule="nonzero" opacity="1" stroke="#000000" stroke-linecap="butt" stroke-linejoin="round" stroke-width="0.579663"/>
<path d="M23.9045 40.5603L23.9045 40.5603C23.6385 40.5603 23.4229 40.7511 23.4229 40.9863L23.4229 42.4536C23.4229 42.6889 23.6385 42.8797 23.9045 42.8797L23.9045 42.8797C24.1706 42.8797 24.3862 42.6889 24.3862 42.4536L24.3862 40.9863C24.3862 40.7511 24.1706 40.5603 23.9045 40.5603Z" fill="#000000" fill-rule="nonzero" opacity="1" stroke="#000000" stroke-linecap="butt" stroke-linejoin="round" stroke-width="0.579663"/>
</g>
<g opacity="1" vectornator:layerName="LeftEye">
<path d="M20.7202 25.2718C17.1068 25.2718 14.1667 28.2119 14.1667 31.8253C14.1667 35.4387 17.1068 38.3789 20.7202 38.3789C24.3337 38.3789 27.2738 35.4387 27.2738 31.8253C27.2738 28.2119 24.3337 25.2718 20.7202 25.2718L20.7202 25.2718Z" fill="#57a6f0" fill-opacity="0.997759" fill-rule="nonzero" opacity="1" stroke="#000000" stroke-linecap="butt" stroke-linejoin="round" stroke-width="1.57162"/>
<path d="M19.307 29.5964C17.9948 30.3541 17.5451 32.032 18.3028 33.3443C19.0604 34.6565 20.7384 35.1061 22.0506 34.3485C23.3629 33.5909 23.8125 31.9129 23.0548 30.6007C22.2972 29.2884 20.6193 28.8388 19.307 29.5964Z" fill="#ffffff" fill-rule="nonzero" opacity="1" stroke="#000000" stroke-linecap="butt" stroke-linejoin="round" stroke-width="1.56778" vectornator:layerName="path"/>
</g>
<g opacity="1" vectornator:layerName="RightEye">
<path d="M36.0447 25.3124C32.4534 25.3124 29.5318 28.234 29.5318 31.8253C29.5318 35.4166 32.4534 38.3382 36.0447 38.3382C39.636 38.3382 42.5576 35.4166 42.5576 31.8253C42.5576 28.234 39.636 25.3124 36.0447 25.3124L36.0447 25.3124Z" fill="#000000" fill-rule="nonzero" opacity="1" stroke="none"/>
<path d="M33.6767 27.9076C31.4607 29.187 30.7014 32.0205 31.9808 34.2365C33.2602 36.4525 36.0938 37.2117 38.3098 35.9323C40.5258 34.6529 41.285 31.8194 40.0056 29.6034C38.7262 27.3874 35.8927 26.6282 33.6767 27.9076Z" fill="none" opacity="1" stroke="#57a6f0" stroke-linecap="butt" stroke-linejoin="round" stroke-opacity="0.997759" stroke-width="0.87312" vectornator:layerName="path"/>
<path d="M35.9744 28.91L35.9744 28.91C36.2238 28.91 36.426 29.1758 36.426 29.5036L36.426 34.3141C36.426 34.6419 36.2238 34.9077 35.9744 34.9077L35.9744 34.9077C35.725 34.9077 35.5228 34.6419 35.5228 34.3141L35.5228 29.5036C35.5228 29.1758 35.725 28.91 35.9744 28.91ZM38.9732 31.9088L38.9732 31.9088C38.9732 32.1582 38.7075 32.3604 38.3797 32.3604L33.5691 32.3604C33.2413 32.3604 32.9756 32.1582 32.9756 31.9088L32.9756 31.9088C32.9756 31.6594 33.2413 31.4573 33.5691 31.4573L38.3797 31.4573C38.7075 31.4573 38.9732 31.6594 38.9732 31.9088Z" fill="#ffffff" fill-rule="nonzero" opacity="1" stroke="none" vectornator:layerName="Spokes"/>
</g>
<g opacity="1" vectornator:layerName="SmallReels">
<path d="M39.6142 23.2723C39.191 23.2723 38.848 23.6153 38.848 24.0385C38.848 24.4617 39.191 24.8047 39.6142 24.8047C40.0374 24.8047 40.3804 24.4617 40.3804 24.0385C40.3804 23.6153 40.0374 23.2723 39.6142 23.2723Z" fill="#000000" fill-rule="nonzero" opacity="1" stroke="none"/>
<path d="M16.2783 23.2723C15.8551 23.2723 15.512 23.6153 15.512 24.0385C15.512 24.4617 15.8551 24.8047 16.2783 24.8047C16.7014 24.8047 17.0445 24.4617 17.0445 24.0385C17.0445 23.6153 16.7014 23.2723 16.2783 23.2723Z" fill="#000000" fill-rule="nonzero" opacity="1" stroke="none"/>
</g>
</g>
</g>
</svg>
