<?xml version="1.0" encoding="UTF-8" standalone="no"?>
<!DOCTYPE svg PUBLIC "-//W3C//DTD SVG 1.1//EN" "http://www.w3.org/Graphics/SVG/1.1/DTD/svg11.dtd">
<!-- Created with Vectornator (http://vectornator.io/) -->
<svg height="100%" stroke-miterlimit="10" style="fill-rule:nonzero;clip-rule:evenodd;stroke-linecap:round;stroke-linejoin:round;" version="1.1" viewBox="0 0 56 56" width="100%" xml:space="preserve" xmlns="http://www.w3.org/2000/svg" xmlns:vectornator="http://vectornator.io" xmlns:xlink="http://www.w3.org/1999/xlink">
<defs/>
<g id="Layer-1" vectornator:layerName="Layer 1">
<g opacity="1" vectornator:layerName="J-Rod">
<path d="M28.0241 5.13942C18.7232 5.13942 11.3009 13.0676 11.301 22.7257C11.301 23.3708 11.3456 24.0436 11.4143 24.737C10.824 26.1027 10.5673 27.6038 10.6566 29.1658C10.8451 32.7691 12.8437 35.8297 15.6985 37.5C17.7896 41.4526 20.4971 45.5138 23.1345 48.5837C23.1338 48.5829 23.1313 48.5845 23.1306 48.5837C24.3496 50.0132 26.1498 50.8606 28.0241 50.8606C29.9098 50.8606 31.656 49.9967 32.8982 48.5993C32.9013 48.5957 32.9028 48.5912 32.906 48.5876C34.2509 47.0339 36.0653 44.2998 37.5886 41.8897C38.3485 40.6874 39.0318 39.5735 39.5257 38.742C39.7728 38.3259 39.9723 37.9811 40.1154 37.7265C40.1486 37.6676 40.167 37.6311 40.1935 37.582C43.1291 35.9416 45.1623 32.8408 45.3487 29.2048C45.3492 29.1965 45.3446 29.1897 45.3448 29.1814C45.4296 27.6311 45.1747 26.1108 44.595 24.7214C44.6337 24.3843 44.7434 23.3906 44.7434 22.7257C44.7434 13.0625 37.2808 5.13947 28.0241 5.13942Z" fill="none" opacity="1" stroke="#000000" stroke-linecap="round" stroke-linejoin="round" stroke-width="0.999796"/>
<path d="M28.0249 5.73763C19.1426 5.73763 11.9818 13.3201 11.9818 22.6516C11.9818 23.3358 12.0291 24.0629 12.1108 24.8248C11.5013 26.1253 11.2404 27.5871 11.3286 29.131C11.5074 32.5715 13.456 35.4816 16.2154 36.9892C18.3177 41.0024 21.0943 45.1729 23.7591 48.2746C24.8237 49.5231 26.3998 50.2624 28.0249 50.2624C29.6536 50.2624 31.1795 49.5196 32.2827 48.2787L32.2827 48.2746C33.5744 46.7824 35.4192 44.0182 36.9516 41.5937C37.7174 40.3822 38.4035 39.259 38.8991 38.4246C39.147 38.0072 39.3483 37.6606 39.4877 37.4126C39.5576 37.2883 39.6099 37.1898 39.649 37.1142C39.6585 37.0958 39.6654 37.0817 39.6732 37.0658C42.5118 35.5958 44.4986 32.6507 44.6769 29.1753L44.6728 29.1753C44.7609 27.6335 44.5008 26.1328 43.8947 24.7926C43.9034 24.717 44.064 23.3156 44.064 22.6516C44.064 13.3186 36.8632 5.73766 28.0249 5.73763Z" fill="none" opacity="1" stroke="#ffffff" stroke-linecap="round" stroke-linejoin="round" stroke-width="0.76018" vectornator:layerName="Outline"/>
<g opacity="1" vectornator:layerName="Face">
<path d="M11.7062 29.1104C11.8802 32.4608 13.7947 35.289 16.4924 36.7249C18.581 40.7279 21.3657 44.905 24.0199 47.9943C25.0206 49.1691 26.5 49.8653 28.0229 49.8653L28.0229 49.8653C29.5458 49.8653 30.9817 49.1691 32.026 47.9943C34.5496 45.079 39.3794 36.9859 39.3794 36.8119C42.1641 35.4195 44.1221 32.5478 44.2961 29.1539C44.3832 27.631 44.1221 26.1516 43.5129 24.8463C43.5129 24.8028 43.687 23.3234 43.687 22.6707C43.687 13.5334 36.6382 6.13644 28.0229 6.13644C19.3642 6.13644 12.3589 13.5334 12.3589 22.6707C12.3589 23.3669 12.4024 24.1066 12.4894 24.8898C11.8802 26.1516 11.6192 27.5875 11.7062 29.1104Z" fill="#000000" fill-rule="nonzero" opacity="1" stroke="none"/>
<path d="M27.9794 8.6601C34.9847 8.6601 40.6847 14.5341 41.0328 21.931C40.7282 21.931 40.3801 22.0181 40.1191 22.2356C39.5969 22.7142 39.5099 23.5409 39.9885 24.0631C41.1633 25.3684 41.729 27.1089 41.642 28.9363C41.5114 32.4172 38.7702 35.1149 35.4634 35.1149C34.7237 35.1149 34.158 35.6806 34.158 36.4203C34.158 37.16 34.7237 37.7256 35.4634 37.7256C35.6374 37.7256 35.8114 37.7256 35.9855 37.6821C34.2015 40.8149 32.026 43.9042 30.0244 46.2538C29.5023 46.863 28.7626 47.2111 28.0229 47.2111C27.2397 47.2111 26.5435 46.863 26.0214 46.2538C23.9764 43.8607 21.8443 40.8149 20.0604 37.6821C20.2344 37.6821 20.4085 37.7256 20.5825 37.7256C21.3222 37.7256 21.8878 37.16 21.8878 36.4203C21.8878 35.6806 21.3222 35.1149 20.5825 35.1149C17.2756 35.1149 14.5344 32.4172 14.3604 28.9799C14.2734 27.1524 14.839 25.4554 16.0138 24.1066C16.4924 23.5845 16.4489 22.7577 15.8833 22.2791C15.6222 22.0616 15.3176 21.931 14.9695 21.9745C15.2741 14.5776 21.0176 8.6601 27.9794 8.6601Z" fill="#ffffff" fill-rule="nonzero" opacity="1" stroke="none"/>
</g>
<path d="M28.8545 42.3764L27.1044 42.3764C26.7879 42.3764 26.5458 42.6185 26.5458 42.935C26.5458 43.2515 26.7879 43.4935 27.1044 43.4935L28.8545 43.4935C29.171 43.4935 29.413 43.2515 29.413 42.935C29.413 42.6185 29.171 42.3764 28.8545 42.3764Z" fill="#000000" fill-rule="nonzero" opacity="1" stroke="none" vectornator:layerName="Mouth"/>
<path d="M15.4958 28.7413C15.6434 31.3982 17.8083 33.3663 20.3176 33.3663L24.1062 33.3663C25.6806 33.3663 26.8123 31.6934 26.3203 30.1189C25.3854 27.2652 23.565 25.986 20.17 25.986C17.4639 25.986 15.3482 25.8876 15.4958 28.7413Z" fill="#72c885" fill-rule="nonzero" opacity="1" stroke="#000000" stroke-linecap="butt" stroke-linejoin="round" stroke-width="1.02866" vectornator:layerName="LeftEye"/>
<path d="M31.8962 33.3663L35.6847 33.3663C38.194 33.3663 40.3589 31.349 40.5065 28.7413C40.6541 25.8876 38.5384 26.0352 35.8815 25.986C32.4866 25.9368 30.6169 27.216 29.7313 30.1189C29.1901 31.6934 30.2725 33.3663 31.8962 33.3663Z" fill="#72c885" fill-rule="nonzero" opacity="1" stroke="#000000" stroke-linecap="butt" stroke-linejoin="round" stroke-width="1.02866" vectornator:layerName="RightEye"/>
<path d="M27.9986 20.1542C26.6152 20.1542 25.4937 21.2757 25.4937 22.6592C25.4937 24.0426 26.6152 25.1641 27.9986 25.1641C29.382 25.1641 30.5035 24.0426 30.5035 22.6592C30.5035 21.2757 29.382 20.1542 27.9986 20.1542Z" fill="#72c885" fill-rule="nonzero" opacity="1" stroke="#000000" stroke-linecap="round" stroke-linejoin="round" stroke-width="1.02866" vectornator:layerName="ThirdEye"/>
</g>
</g>
</svg>
