<?xml version="1.0" encoding="UTF-8" standalone="no"?>
<!DOCTYPE svg PUBLIC "-//W3C//DTD SVG 1.1//EN" "http://www.w3.org/Graphics/SVG/1.1/DTD/svg11.dtd">
<!-- Created with Vectornator (http://vectornator.io/) -->
<svg height="100%" stroke-miterlimit="10" style="fill-rule:nonzero;clip-rule:evenodd;stroke-linecap:round;stroke-linejoin:round;" version="1.1" viewBox="0 0 56 56" width="100%" xml:space="preserve" xmlns="http://www.w3.org/2000/svg" xmlns:vectornator="http://vectornator.io" xmlns:xlink="http://www.w3.org/1999/xlink">
<defs/>
<g id="Layer-1" vectornator:layerName="Layer 1">
<g opacity="1" vectornator:layerName="Mr. Hobb">
<path d="M17.8122 4.10629C16.5679 4.18999 15.4817 5.12097 15.3031 6.42397C15.147 7.56368 15.7427 8.59393 16.6746 9.11022C17.4129 11.5594 18.5858 15.4519 19.3502 17.9876C18.8408 18.41 18.3532 18.8573 17.9149 19.3661C17.9148 19.3663 17.9115 19.366 17.9114 19.3661C16.0011 21.5857 14.9626 24.462 14.7432 27.7403C14.5218 27.8002 14.2998 27.8739 14.0805 27.9919C13.4575 28.327 13.0006 28.8969 12.7161 29.5725C12.1619 30.8881 12.0463 32.7117 12.0463 35.714C12.0463 38.0273 12.6118 40.0665 13.5099 41.618C14.2163 42.8383 15.1766 43.8383 16.3379 44.3043C16.445 44.9079 16.5514 45.5302 16.6569 45.9876C17.055 47.7164 17.6152 49.0761 18.7229 50.1127C19.8774 51.1934 21.3284 51.6285 23.0641 51.7889C24.1759 51.8919 24.2885 51.8948 28.4118 51.8952C28.6314 51.8952 28.8291 51.8982 29.2163 51.8988C31.7765 51.9026 32.7287 51.8886 33.8517 51.7676C35.4381 51.5973 36.7925 51.193 37.9448 50.343C39.1659 49.4425 39.9749 48.1665 40.5283 46.5972C40.9512 45.3977 41.2591 43.9131 41.5702 41.9512C42.2378 41.3696 42.737 40.6224 43.094 39.8C43.6155 38.5995 43.8916 37.1811 43.9446 35.7529C43.9987 34.2869 43.815 32.8546 43.3208 31.6314C43.0435 30.9454 42.6569 30.3154 42.1443 29.7993C42.3138 25.614 41.2822 21.9916 38.9619 19.3201C38.5678 18.8664 38.1337 18.4612 37.6826 18.0797C37.8662 17.7838 37.9936 17.5794 38.2779 17.1158C38.2835 17.1066 38.8575 16.1745 39.3446 15.3793C40.4681 15.0616 41.3008 14.0422 41.3008 12.8135C41.3008 11.3321 40.0982 10.1308 38.6181 10.1308C37.1339 10.1308 35.9387 11.3371 35.939 12.8135C35.939 13.0021 35.966 13.1744 36.0028 13.338C35.5246 14.1207 34.9609 15.0462 34.9609 15.0462C34.9557 15.0542 34.9517 15.0628 34.9467 15.071C34.6556 15.5459 34.5229 15.7561 34.3372 16.0562C32.5414 15.3178 30.5401 14.9401 28.4118 14.9399C26.4231 14.9399 24.5537 15.2903 22.8551 15.9499C22.1104 13.4762 21.1059 10.1411 20.4381 7.92302C20.5537 7.69653 20.6495 7.43731 20.6898 7.14337C20.8942 5.65101 19.8219 4.31543 18.3544 4.12401C18.1757 4.10061 17.9957 4.09505 17.8157 4.10629C17.8138 4.10641 17.8141 4.10613 17.8122 4.10629Z" fill="none" opacity="1" stroke="#000000" stroke-linecap="round" stroke-linejoin="round" stroke-width="1.03161"/>
<path d="M17.8937 5.33601C17.2053 5.38231 16.6209 5.89632 16.5257 6.59053C16.4222 7.34601 16.9351 8.03844 17.6846 8.1959L20.7677 18.4235C20.0626 18.9253 19.4183 19.5072 18.847 20.1706C16.9568 22.3667 15.967 25.3161 15.9233 28.8176C13.92 28.8635 13.2795 29.764 13.2796 35.714C13.2796 39.9392 15.3598 43.0456 17.4082 43.3333C17.4085 43.3355 17.4113 43.3451 17.4117 43.3474C17.5804 44.3702 17.7145 45.0879 17.8582 45.7112C18.2356 47.3496 18.7124 48.4135 19.5664 49.2125C20.4519 50.0415 21.5663 50.4138 23.1776 50.5627C24.2442 50.6616 24.2584 50.6616 28.4118 50.662C28.6437 50.662 28.839 50.6649 29.2198 50.6655C31.7854 50.6694 32.6764 50.654 33.7205 50.5415C35.1855 50.3841 36.2897 50.0332 37.2148 49.3507C38.1906 48.6311 38.8651 47.6063 39.3659 46.1861C39.7825 45.0046 40.1004 43.5037 40.4361 41.2885C41.086 40.8545 41.5921 40.1628 41.9635 39.3074C42.4057 38.2895 42.6631 37.0053 42.7113 35.7069C42.7606 34.3734 42.5864 33.0987 42.1797 32.0921C41.8814 31.3542 41.4482 30.7476 40.8933 30.3379C41.1828 26.1136 40.2019 22.629 38.0299 20.1281C37.4451 19.4551 36.7816 18.8703 36.0559 18.3668C36.3966 17.8176 36.6708 17.3809 37.229 16.4708C37.2361 16.4591 37.9935 15.224 38.5863 14.2559C38.5972 14.2561 38.6069 14.2591 38.6181 14.2594C39.4173 14.2594 40.0676 13.6127 40.0676 12.8135C40.0676 12.0144 39.4173 11.3641 38.6181 11.3641C37.819 11.3641 37.1721 12.0144 37.1723 12.8135C37.1723 13.061 37.2506 13.279 37.3601 13.4833C36.7688 14.4508 36.0029 15.7048 35.9957 15.716C35.432 16.6354 35.1546 17.0804 34.8156 17.6261C32.9636 16.6684 30.7917 16.1733 28.4118 16.1731C26.0587 16.1731 23.9116 16.6771 22.0754 17.6367L19.0915 7.72457C19.2782 7.51694 19.4268 7.27129 19.4671 6.97681C19.5759 6.18298 19.0068 5.45256 18.1949 5.34664C18.0934 5.33335 17.992 5.32986 17.8937 5.33601Z" fill="none" opacity="1" stroke="#ffffff" stroke-linecap="round" stroke-linejoin="round" stroke-width="1.59573" vectornator:layerName="Outline"/>
<path d="M14.6567 35.2535C14.6567 33.1115 15.8806 31.2755 17.4106 31.2755C16.3396 22.0957 21.3885 17.3528 28.4264 17.3528C35.4643 17.3528 40.6662 21.9427 39.4422 31.4285C42.3696 31.2569 41.9045 40.1001 39.2532 40.2921C37.9036 49.8328 36.831 49.4822 28.4264 49.4822C19.2053 49.4822 19.8566 49.8328 18.2953 40.2573C16.7654 40.2573 14.6567 37.3954 14.6567 35.2535Z" fill="#ffffff" fill-rule="nonzero" opacity="1" stroke="#000000" stroke-linecap="round" stroke-linejoin="round" stroke-width="2.75395" vectornator:layerName="Head"/>
<path d="M13.2797 35.7125C13.2797 40.1494 15.5746 43.3623 17.7166 43.3623L19.2466 43.3623C20.1646 43.3623 21.486 41.2729 22.7403 42.1491C30.1326 47.3126 28.7599 52.29 28.5062 33.7586C28.4631 30.6157 24.5005 30.3086 20.3477 29.6613C18.9871 29.4492 16.0868 28.8057 16.0868 28.8057C13.9448 28.8057 13.2797 29.5926 13.2797 35.7125Z" fill="#000000" fill-rule="nonzero" opacity="1" stroke="none" vectornator:layerName="CrowMask"/>
<g opacity="1" vectornator:layerName="LeftAntenna">
<path d="M21.4834 18.3573L17.834 6.06242" fill="none" opacity="1" stroke="#000000" stroke-linecap="round" stroke-linejoin="round" stroke-width="1.44697" vectornator:layerName="path"/>
<path d="M18.5208 5.45461C19.253 5.77463 19.5872 6.62768 19.2672 7.35994C18.9472 8.09221 18.0941 8.4264 17.3619 8.10639C16.6296 7.78637 16.2954 6.93332 16.6154 6.20105C16.9354 5.46879 17.7885 5.1346 18.5208 5.45461Z" fill="#000000" fill-rule="nonzero" opacity="1" stroke="none" vectornator:layerName="path"/>
</g>
<g opacity="1" vectornator:layerName="RightAntenna">
<path d="M34.6003 19.3418L37.9036 14.1545" fill="none" opacity="1" stroke="#000000" stroke-linecap="round" stroke-linejoin="round" stroke-width="1.44697" vectornator:layerName="path"/>
<path d="M38.619 11.3649C37.8198 11.3649 37.172 12.0127 37.172 12.8119C37.172 13.611 37.8198 14.2588 38.619 14.2588C39.4181 14.2588 40.0659 13.611 40.0659 12.8119C40.0659 12.0127 39.4181 11.3649 38.619 11.3649Z" fill="#000000" fill-rule="nonzero" opacity="1" stroke="none" vectornator:layerName="path"/>
</g>
<path d="M33.7141 32.2494C31.7855 32.2494 30.2221 33.8128 30.2221 35.7413C30.2221 37.6699 31.7855 39.2333 33.7141 39.2333C35.6426 39.2333 37.206 37.6699 37.206 35.7413C37.206 33.8128 35.6426 32.2494 33.7141 32.2494Z" fill="#a26ee3" fill-opacity="0.934783" fill-rule="nonzero" opacity="1" stroke="#000000" stroke-linecap="round" stroke-linejoin="round" stroke-width="1.38041" vectornator:layerName="RightEye"/>
<path d="M20.6568 35.7413C20.6568 34.396 21.7031 33.3497 23.0484 33.3497C24.3937 33.3497 25.44 34.396 25.44 35.7413C25.44 37.0866 24.3937 38.1329 23.0484 38.1329C21.7031 38.1329 20.6568 37.0866 20.6568 35.7413Z" fill="#a26ee3" fill-opacity="0.934783" fill-rule="nonzero" opacity="1" stroke="#ffffff" stroke-linecap="round" stroke-linejoin="round" stroke-width="0.907228" vectornator:layerName="LeftEye"/>
<path d="M25.9959 23.9998C25.6493 23.9998 25.3683 24.2808 25.3683 24.6274C25.3683 24.974 25.6493 25.255 25.9959 25.255C26.3425 25.255 26.6234 24.974 26.6234 24.6274C26.6234 24.2808 26.3425 23.9998 25.9959 23.9998ZM28.5062 23.9998C28.1596 23.9998 27.8786 24.2808 27.8786 24.6274C27.8786 24.974 28.1596 25.255 28.5062 25.255C28.8528 25.255 29.1338 24.974 29.1338 24.6274C29.1338 24.2808 28.8528 23.9998 28.5062 23.9998ZM31.0165 23.9998C30.6699 23.9998 30.3889 24.2808 30.3889 24.6274C30.3889 24.974 30.6699 25.255 31.0165 25.255C31.3631 25.255 31.6441 24.974 31.6441 24.6274C31.6441 24.2808 31.3631 23.9998 31.0165 23.9998ZM33.5268 23.9998C33.1802 23.9998 32.8992 24.2808 32.8992 24.6274C32.8992 24.974 33.1802 25.255 33.5268 25.255C33.8734 25.255 34.1544 24.974 34.1544 24.6274C34.1544 24.2808 33.8734 23.9998 33.5268 23.9998ZM36.0371 23.9998C35.6905 23.9998 35.4095 24.2808 35.4095 24.6274C35.4095 24.974 35.6905 25.255 36.0371 25.255C36.3837 25.255 36.6647 24.974 36.6647 24.6274C36.6647 24.2808 36.3837 23.9998 36.0371 23.9998ZM20.9753 23.9998C20.6287 23.9998 20.3477 24.2808 20.3477 24.6274C20.3477 24.974 20.6287 25.255 20.9753 25.255C21.3219 25.255 21.6028 24.974 21.6028 24.6274C21.6028 24.2808 21.3219 23.9998 20.9753 23.9998ZM23.4856 23.9998C23.139 23.9998 22.858 24.2808 22.858 24.6274C22.858 24.974 23.139 25.255 23.4856 25.255C23.8322 25.255 24.1131 24.974 24.1131 24.6274C24.1131 24.2808 23.8322 23.9998 23.4856 23.9998Z" fill="#a26ee3" fill-opacity="0.934783" fill-rule="nonzero" opacity="1" stroke="#000000" stroke-linecap="round" stroke-linejoin="round" stroke-width="0.453614" vectornator:layerName="MemoryLights"/>
</g>
</g>
</svg>
