<?xml version="1.0" encoding="UTF-8" standalone="no"?>
<!DOCTYPE svg PUBLIC "-//W3C//DTD SVG 1.1//EN" "http://www.w3.org/Graphics/SVG/1.1/DTD/svg11.dtd">
<!-- Created with Vectornator (http://vectornator.io/) -->
<svg height="100%" stroke-miterlimit="10" style="fill-rule:nonzero;clip-rule:evenodd;stroke-linecap:round;stroke-linejoin:round;" version="1.1" viewBox="0 0 312 24" width="100%" xml:space="preserve" xmlns="http://www.w3.org/2000/svg" xmlns:vectornator="http://vectornator.io" xmlns:xlink="http://www.w3.org/1999/xlink">
<defs>
<filter color-interpolation-filters="sRGB" filterUnits="userSpaceOnUse" height="36.791" id="Filter" width="325.075" x="-6.53764" y="-6.39551">
<feDropShadow dx="0" dy="-0" flood-color="#000000" flood-opacity="0.790208" in="SourceGraphic" result="Shadow" stdDeviation="3.4815"/>
</filter>
<filter color-interpolation-filters="sRGB" filterUnits="userSpaceOnUse" height="18.4075" id="Filter_2" width="183.106" x="129.164" y="2.79625">
<feDropShadow dx="0" dy="-0" flood-color="#000000" flood-opacity="0.790208" in="SourceGraphic" result="Shadow" stdDeviation="3.4815"/>
</filter>
<filter color-interpolation-filters="sRGB" filterUnits="userSpaceOnUse" height="31.7772" id="Filter_3" width="146.169" x="-0.833332" y="-3.71656">
<feDropShadow dx="0" dy="-0" flood-color="#000000" flood-opacity="0.790208" in="SourceGraphic" result="Shadow" stdDeviation="4.93609"/>
</filter>
<filter color-interpolation-filters="sRGB" filterUnits="userSpaceOnUse" height="26.523" id="Filter_4" width="26.523" x="246.695" y="-1.43717">
<feDropShadow dx="0" dy="-0" flood-color="#000000" flood-opacity="0.790208" in="SourceGraphic" result="Shadow" stdDeviation="2.0829"/>
</filter>
<filter color-interpolation-filters="sRGB" filterUnits="userSpaceOnUse" height="25.877" id="Filter_5" width="25.877" x="269.203" y="-0.938499">
<feDropShadow dx="0" dy="-0" flood-color="#000000" flood-opacity="0.790208" in="SourceGraphic" result="Shadow" stdDeviation="2.03217"/>
</filter>
</defs>
<clipPath id="ArtboardFrame">
<rect height="24" width="312" x="0" y="0"/>
</clipPath>
<g clip-path="url(#ArtboardFrame)" id="Layer-1" vectornator:layerName="Layer 1">
<g opacity="1" vectornator:layerName="Group 1">
<g opacity="1" vectornator:layerName="Group 1">
<path d="M2.16611 9.07615C2.16611 5.33834 5.19621 2.30825 8.93402 2.30825L303.066 2.30825C306.804 2.30825 309.834 5.33834 309.834 9.07615L309.834 14.9238C309.834 18.6617 306.804 21.6918 303.066 21.6918L8.93402 21.6918C5.19621 21.6918 2.16611 18.6617 2.16611 14.9238L2.16611 9.07615Z" fill="#ffffff" fill-rule="nonzero" filter="url(#Filter)" stroke="none" vectornator:layerName="Rectangle 1" vectornator:shadowAngle="-1.56298" vectornator:shadowColor="#000000" vectornator:shadowOffset="0" vectornator:shadowOpacity="0.790208" vectornator:shadowRadius="6.963"/>
<path d="M138.367 12L303.066 12" fill="none" filter="url(#Filter_2)" stroke="#000000" stroke-linecap="round" stroke-linejoin="round" stroke-width="1" vectornator:shadowAngle="-1.56298" vectornator:shadowColor="#000000" vectornator:shadowOffset="0" vectornator:shadowOpacity="0.790208" vectornator:shadowRadius="6.963"/>
<path d="M303.066 9.91792L303.066 9.91792C304.119 9.91792 304.972 10.7715 304.972 11.8244L304.972 11.8244C304.972 12.8772 304.119 13.7308 303.066 13.7308L303.066 13.7308C302.013 13.7308 301.16 12.8772 301.16 11.8244L301.16 11.8244C301.16 10.7715 302.013 9.91792 303.066 9.91792Z" fill="#ffffff" fill-rule="nonzero" opacity="1" stroke="#000000" stroke-linecap="butt" stroke-linejoin="round" stroke-width="1" vectornator:layerName="Rectangle"/>
<path d="M5.28964 11.3175C5.28964 8.13123 6.89088 5.54826 8.86612 5.54826L134.791 5.54826C136.766 5.54826 138.367 8.13123 138.367 11.3175L138.367 12.6825C138.367 15.8688 136.766 18.4517 134.791 18.4517L8.86612 18.4517C6.89088 18.4517 5.28964 15.8688 5.28964 12.6825L5.28964 11.3175Z" fill="#000000" fill-rule="nonzero" opacity="1" stroke="#000000" stroke-linecap="butt" stroke-linejoin="round" stroke-width="1" vectornator:layerName="Rectangle 4"/>
<g fill="#ffffff" filter="url(#Filter_3)" stroke="none" vectornator:shadowAngle="-1.56298" vectornator:shadowColor="#000000" vectornator:shadowOffset="0" vectornator:shadowOpacity="0.790208" vectornator:shadowRadius="9.87217">
<path d="M16.8488 15.3161L12.2467 15.3161L11.5069 12.1763L12.2209 9.03656L16.8488 9.03656L16.5994 10.129L13.0897 10.129L12.6166 12.1763L13.1069 14.2323L16.5994 14.2323L16.8488 15.3161Z"/>
<path d="M24.0703 9.03656L24.7843 12.1763L24.0445 15.3161L19.9327 15.3161L19.1929 12.1763L19.9069 9.03656L24.0703 9.03656ZM20.7929 14.2323L23.1843 14.2323L23.6746 12.1763L23.2015 10.129L20.7757 10.129L20.3026 12.1763L20.7929 14.2323Z"/>
<path d="M31.937 9.03656L32.3843 10.9634L31.937 12.8903L28.5133 12.8903L28.5133 15.3161L27.4295 15.3161L27.4295 9.03656L31.937 9.03656ZM28.5133 11.8065L31.0768 11.8065L31.266 10.9634L31.0768 10.129L28.5133 10.129L28.5133 11.8065Z"/>
<path d="M39.5542 9.04516L39.5542 10.8516L37.7563 13.7763L37.7563 15.3161L36.6639 15.3161L36.6639 13.7763L34.866 10.8516L34.866 9.04516L35.9499 9.04516L35.9499 10.6022L37.2144 12.6409L38.4703 10.6022L38.4703 9.04516L39.5542 9.04516Z"/>
<path d="M47.2961 15.7204L47.2961 8.62366L48.38 8.62366L48.38 15.7204L47.2961 15.7204Z"/>
<path d="M61.4639 15.3161L56.8617 15.3161L56.1219 12.1763L56.8359 9.03656L61.4639 9.03656L61.2144 10.129L57.7047 10.129L57.2316 12.1763L57.7219 14.2323L61.2144 14.2323L61.4639 15.3161Z"/>
<path d="M65.1499 14.2323L68.2811 14.2323L68.2811 15.3161L64.066 15.3161L64.066 9.03656L65.1499 9.03656L65.1499 14.2323Z"/>
<path d="M75.4596 14.2323L75.4682 14.2323L75.7262 15.3161L70.9262 15.3161L70.9262 9.03656L75.7262 9.04516L75.4682 10.129L72.0101 10.129L72.0101 11.5742L75.2187 11.5742L75.2187 12.6581L72.0101 12.6581L72.0101 14.2323L75.4596 14.2323Z"/>
<path d="M82.9305 15.3161L82.3714 12.8903L79.6961 12.8903L79.1284 15.3161L78.0187 15.3161L79.4725 9.03656L82.5865 9.03656L84.0488 15.3161L82.9305 15.3161ZM79.9456 11.8065L82.1133 11.8065L81.7262 10.129L80.3327 10.129L79.9456 11.8065Z"/>
<path d="M90.5133 15.3161L89.9542 12.8903L87.5542 12.8903L87.5542 15.3161L86.4703 15.3161L86.4703 9.03656L91.2617 9.03656L91.2617 10.9634L90.9434 12.3484L91.6316 15.3161L90.5133 15.3161ZM87.5542 10.129L87.5542 11.8065L89.9542 11.8065L90.1434 10.9634L90.1434 10.129L87.5542 10.129Z"/>
<path d="M99.2015 15.7204L99.2015 8.62366L100.285 8.62366L100.285 15.7204L99.2015 15.7204Z"/>
<path d="M112.776 14.2323L112.784 14.2323L113.042 15.3161L108.242 15.3161L108.242 9.03656L113.042 9.04516L112.784 10.129L109.326 10.129L109.326 11.5742L112.535 11.5742L112.535 12.6581L109.326 12.6581L109.326 14.2323L112.776 14.2323Z"/>
<path d="M120.926 9.03656L121.64 12.1763L120.9 15.3161L115.808 15.3161L115.808 9.03656L120.926 9.03656ZM120.04 14.2323L120.531 12.1763L120.057 10.129L116.892 10.129L116.892 14.2323L120.04 14.2323Z"/>
<path d="M124.242 9.03656L125.326 9.03656L125.326 15.3161L124.242 15.3161L124.242 9.03656Z"/>
<path d="M132.995 9.03656L132.995 10.129L130.982 10.129L130.982 15.3161L129.898 15.3161L129.898 10.129L127.885 10.129L127.885 9.03656L132.995 9.03656Z"/>
</g>
<path d="M252.745 11.8244C252.745 7.84168 255.974 4.61308 259.956 4.61308C263.939 4.61308 267.168 7.84168 267.168 11.8244C267.168 15.807 263.939 19.0356 259.956 19.0356C255.974 19.0356 252.745 15.807 252.745 11.8244Z" fill="#ffffff" fill-rule="nonzero" filter="url(#Filter_4)" stroke="#000000" stroke-linecap="butt" stroke-linejoin="round" stroke-width="1.68597" vectornator:shadowAngle="-1.56298" vectornator:shadowColor="#000000" vectornator:shadowOffset="0" vectornator:shadowOpacity="0.790208" vectornator:shadowRadius="4.16581"/>
<path d="M257.414 8.17061C257.15 8.16733 256.887 8.27241 256.684 8.47101C256.277 8.8682 256.265 9.52291 256.663 9.9301L258.508 11.8398L256.663 13.728C256.265 14.1352 256.277 14.7899 256.684 15.1871C257.091 15.5843 257.746 15.5729 258.143 15.1657L259.967 13.2989L261.769 15.1657C262.167 15.5729 262.821 15.5843 263.229 15.1871C263.636 14.7899 263.647 14.1352 263.25 13.728L261.405 11.8398L263.25 9.9301C263.647 9.52291 263.636 8.8682 263.229 8.47101C263.025 8.27241 262.763 8.16731 262.499 8.17061C262.235 8.17388 261.968 8.28885 261.769 8.49246L259.967 10.3592L258.143 8.49246C257.945 8.28887 257.677 8.17389 257.414 8.17061Z" fill="#dc4c30" fill-rule="nonzero" opacity="1" stroke="#000000" stroke-linecap="round" stroke-linejoin="round" stroke-width="0.505791"/>
<path d="M275.106 12C275.106 8.11433 278.256 4.96438 282.142 4.96438C286.027 4.96438 289.177 8.11433 289.177 12C289.177 15.8857 286.027 19.0356 282.142 19.0356C278.256 19.0356 275.106 15.8857 275.106 12Z" fill="#ffffff" fill-rule="nonzero" filter="url(#Filter_5)" stroke="#000000" stroke-linecap="butt" stroke-linejoin="round" stroke-width="1.6449" vectornator:shadowAngle="-1.56298" vectornator:shadowColor="#000000" vectornator:shadowOffset="0" vectornator:shadowOpacity="0.790208" vectornator:shadowRadius="4.06434"/>
<path d="M284.52 8.31746C284.271 8.36923 284.033 8.50484 283.903 8.72868L281.59 12.7124L280.408 10.9904C280.243 10.7527 280.003 10.6015 279.74 10.5535C279.476 10.5055 279.181 10.5433 278.943 10.7077C278.467 11.0365 278.357 11.6973 278.686 12.1727L280.819 15.2826C280.876 15.3654 280.976 15.3761 281.05 15.4368C281.125 15.4975 281.196 15.5534 281.282 15.591C281.432 15.6557 281.593 15.6702 281.744 15.6681C281.876 15.6595 282.007 15.6249 282.13 15.5653C282.228 15.5186 282.312 15.4646 282.387 15.3854C282.431 15.3386 282.508 15.3402 282.541 15.2826L285.728 9.78245C285.987 9.33475 285.791 8.73564 285.291 8.44597C285.041 8.30113 284.769 8.26568 284.52 8.31746Z" fill="#000000" fill-rule="nonzero" opacity="1" stroke="none"/>
</g>
</g>
</g>
</svg>
