<?xml version="1.0" encoding="UTF-8" standalone="no"?>
<!DOCTYPE svg PUBLIC "-//W3C//DTD SVG 1.1//EN" "http://www.w3.org/Graphics/SVG/1.1/DTD/svg11.dtd">
<!-- Created with Vectornator (http://vectornator.io/) -->
<svg height="100%" stroke-miterlimit="10" style="fill-rule:nonzero;clip-rule:evenodd;stroke-linecap:round;stroke-linejoin:round;" version="1.1" viewBox="0 0 32.0379 32.0379" width="100%" xml:space="preserve" xmlns="http://www.w3.org/2000/svg" xmlns:vectornator="http://vectornator.io" xmlns:xlink="http://www.w3.org/1999/xlink">
<defs/>
<g id="Layer-1" vectornator:layerName="Layer 1">
<g opacity="1">
<path d="M24.2344 5.05631C23.5464 4.99621 22.8979 5.13067 22.3484 5.38636C18.4825 7.18696 10.7492 10.7995 6.88336 12.6002C6.40802 12.8271 5.95487 13.1904 5.61032 13.6847C5.31054 14.1149 5.08521 14.6373 5.04453 15.1935C5.00676 15.7095 5.10386 16.2772 5.32742 16.7494C5.57383 17.2701 5.95754 17.6879 6.41186 17.9753C6.96875 18.3272 7.61147 18.4469 8.1564 18.4468C9.51779 18.4523 11.7377 18.4394 13.5786 18.4468C13.5835 20.2814 13.5749 22.5123 13.5786 23.869C13.5786 24.4059 13.7161 25.0189 14.0501 25.5664C14.3342 26.0321 14.7583 26.4462 15.276 26.698C15.7674 26.9368 16.3375 27.0361 16.8791 26.9809C17.4494 26.9227 17.9682 26.671 18.3879 26.3679C18.9084 25.9921 19.2484 25.5068 19.4723 25.0006C21.2598 21.1381 24.8515 13.4451 26.639 9.58267C26.6392 9.58237 26.639 9.53604 26.639 9.53552C26.9002 8.97033 27.0771 8.29748 26.9691 7.55524C26.8772 6.92305 26.5544 6.28858 26.0261 5.81071C25.5126 5.34637 24.8499 5.10993 24.2344 5.05631Z" fill="#282828" fill-rule="nonzero" opacity="1" stroke="#ffffff" stroke-linecap="round" stroke-linejoin="round" stroke-width="0.963388" vectornator:layerName="Curve"/>
<path d="M8.36294 16.5945L15.2267 16.6222C15.3493 16.6222 15.4107 16.6839 15.4107 16.8071L15.4291 23.6473C15.4291 23.9308 15.4873 24.168 15.6039 24.359C15.7204 24.5501 15.8738 24.6918 16.0639 24.7842C16.2541 24.8767 16.4549 24.9121 16.6666 24.8905C16.8782 24.869 17.0821 24.7873 17.2784 24.6456C17.4747 24.5039 17.6342 24.2943 17.7568 24.017L24.7126 8.98713C24.872 8.64204 24.9318 8.33238 24.892 8.05815C24.8521 7.78393 24.7402 7.56363 24.5561 7.39725C24.3721 7.23086 24.139 7.13535 23.8569 7.1107C23.5747 7.08605 23.268 7.15075 22.9368 7.30481L7.8937 14.3114C7.64835 14.4285 7.46127 14.5794 7.33246 14.7643C7.20365 14.9492 7.13158 15.1464 7.11625 15.3559C7.10091 15.5654 7.13771 15.7641 7.22665 15.9521C7.31559 16.14 7.45514 16.2941 7.64529 16.4143C7.83543 16.5344 8.07465 16.5945 8.36294 16.5945Z" fill="#ffac00" fill-rule="nonzero" opacity="1" stroke="#000000" stroke-linecap="round" stroke-linejoin="round" stroke-width="2.23608" vectornator:layerName="Curve"/>
</g>
</g>
</svg>
