<?xml version="1.0" encoding="UTF-8" standalone="no"?>
<!DOCTYPE svg PUBLIC "-//W3C//DTD SVG 1.1//EN" "http://www.w3.org/Graphics/SVG/1.1/DTD/svg11.dtd">
<!-- Created with Vectornator (http://vectornator.io/) -->
<svg height="100%" stroke-miterlimit="10" style="fill-rule:nonzero;clip-rule:evenodd;stroke-linecap:round;stroke-linejoin:round;" version="1.1" viewBox="0 0 296.043 56.4388" width="100%" xml:space="preserve" xmlns="http://www.w3.org/2000/svg" xmlns:vectornator="http://vectornator.io" xmlns:xlink="http://www.w3.org/1999/xlink">
<defs>
<filter color-interpolation-filters="sRGB" filterUnits="userSpaceOnUse" height="31.0187" id="Filter" width="219.939" x="32.9479" y="38.3505">
<feDropShadow dx="0" dy="-0" flood-color="#000000" flood-opacity="0.790208" in="SourceGraphic" result="Shadow" stdDeviation="5.60373"/>
</filter>
<filter color-interpolation-filters="sRGB" filterUnits="userSpaceOnUse" height="47.6415" id="Filter_2" width="47.5506" x="17.2955" y="20.5508">
<feDropShadow dx="0" dy="-0" flood-color="#000000" flood-opacity="0.790208" in="SourceGraphic" result="Shadow" stdDeviation="8.29183"/>
</filter>
</defs>
<clipPath id="ArtboardFrame">
<rect height="56.4388" width="296.043" x="0" y="0"/>
</clipPath>
<g clip-path="url(#ArtboardFrame)" id="Layer-1" vectornator:layerName="Layer 1">
<path d="M237.377 53.8598L48.4572 53.8598" fill="none" filter="url(#Filter)" stroke="#ffe9ab" stroke-linecap="round" stroke-linejoin="round" stroke-width="3" vectornator:shadowAngle="-1.56298" vectornator:shadowColor="#000000" vectornator:shadowOffset="0" vectornator:shadowOpacity="0.790208" vectornator:shadowRadius="11.2075"/>
<path d="M233.596 0.926427L283.988 0.926427C290.646 0.926427 296.043 6.32387 296.043 12.9819L296.043 43.4568C296.043 50.1149 290.646 55.5123 283.988 55.5123L233.596 55.5123C226.938 55.5123 221.541 50.1149 221.541 43.4568L221.541 12.9819C221.541 6.32387 226.938 0.926427 233.596 0.926427Z" fill="#000000" fill-rule="nonzero" opacity="1" stroke="#000000" stroke-linecap="butt" stroke-linejoin="round" stroke-width="2.05842"/>
<path d="M48.4572 53.8598L41.0708 44.3716" fill="none" opacity="1" stroke="#ffe9ab" stroke-linecap="round" stroke-linejoin="round" stroke-width="3" vectornator:layerName="Line 1"/>
<path d="M38.765 44.3716C38.765 45.6702 39.7973 46.7229 41.0708 46.7229C42.3443 46.7229 43.3767 45.6702 43.3767 44.3716C43.3767 43.073 42.3443 42.0203 41.0708 42.0203C39.7973 42.0203 38.765 43.073 38.765 44.3716Z" fill="#000000" fill-rule="nonzero" filter="url(#Filter_2)" stroke="#ffe9ab" stroke-linecap="butt" stroke-linejoin="round" stroke-width="1.4797" vectornator:shadowAngle="-1.56298" vectornator:shadowColor="#000000" vectornator:shadowOffset="0" vectornator:shadowOpacity="0.790208" vectornator:shadowRadius="16.5837"/>
</g>
</svg>
