<?xml version="1.0" encoding="UTF-8" standalone="no"?>
<!DOCTYPE svg PUBLIC "-//W3C//DTD SVG 1.1//EN" "http://www.w3.org/Graphics/SVG/1.1/DTD/svg11.dtd">
<!-- Created with Vectornator (http://vectornator.io/) -->
<svg height="100%" stroke-miterlimit="10" style="fill-rule:nonzero;clip-rule:evenodd;stroke-linecap:round;stroke-linejoin:round;" version="1.1" viewBox="0 0 390 57.6368" width="100%" xml:space="preserve" xmlns="http://www.w3.org/2000/svg" xmlns:vectornator="http://vectornator.io" xmlns:xlink="http://www.w3.org/1999/xlink">
<defs>
<path d="M314.392 6.73014L361.905 6.73014C365.771 6.73014 368.905 9.86415 368.905 13.7301L368.905 42.8011C368.905 46.6671 365.771 49.8011 361.905 49.8011L314.392 49.8011C310.526 49.8011 307.392 46.6671 307.392 42.8011L307.392 13.7301C307.392 9.86415 310.526 6.73014 314.392 6.73014Z" id="Fill"/>
<filter color-interpolation-filters="sRGB" filterUnits="userSpaceOnUse" height="33.8833" id="Filter" width="235.901" x="70.6028" y="-13.7637">
<feDropShadow dx="0" dy="-0" flood-color="#000000" flood-opacity="0.790208" in="SourceGraphic" result="Shadow" stdDeviation="5.57667"/>
</filter>
<filter color-interpolation-filters="sRGB" filterUnits="userSpaceOnUse" height="33.8833" id="Filter_2" width="235.901" x="70.6028" y="37.5172">
<feDropShadow dx="0" dy="-0" flood-color="#000000" flood-opacity="0.790208" in="SourceGraphic" result="Shadow" stdDeviation="5.57667"/>
</filter>
</defs>
<clipPath id="ArtboardFrame">
<rect height="57.6368" width="390" x="0" y="0"/>
</clipPath>
<g clip-path="url(#ArtboardFrame)" id="Layer-1" vectornator:layerName="Layer 1">
<path d="M32 29.1746C32 28.07 32.8954 27.1746 34 27.1746L37.2877 27.1746C38.3923 27.1746 39.2877 28.07 39.2877 29.1746L39.2877 32.4622C39.2877 33.5668 38.3923 34.4622 37.2877 34.4622L34 34.4622C32.8954 34.4622 32 33.5668 32 32.4622L32 29.1746Z" fill="#ffffff" fill-rule="nonzero" opacity="1" stroke="none" vectornator:layerName="AvatarAlign"/>
<g opacity="1" vectornator:layerName="ButtonAlign">
<path d="M382.741 26.7109C383.436 26.7109 384 27.1282 384 27.643L384 27.643C384 28.1578 383.436 28.5751 382.741 28.5751L354.301 28.5751C353.606 28.5751 353.043 28.1578 353.043 27.643L353.043 27.643C353.043 27.1282 353.606 26.7109 354.301 26.7109L382.741 26.7109Z" fill="#000000" fill-rule="nonzero" opacity="1" stroke="#ffffff" stroke-linecap="round" stroke-linejoin="round" stroke-width="1" vectornator:layerName="Rectangle 1"/>
</g>
<g opacity="0" vectornator:layerName="Group 1">
<path d="M314.551 2.57896L361.891 2.57896C368.146 2.57896 373.217 7.6496 373.217 13.9045L373.217 42.5342C373.217 48.7892 368.146 53.8598 361.891 53.8598L314.551 53.8598C308.296 53.8598 303.225 48.7892 303.225 42.5342L303.225 13.9045C303.225 7.6496 308.296 2.57896 314.551 2.57896Z" fill="#000000" fill-rule="nonzero" opacity="1" stroke="#ffe9ab" stroke-linecap="butt" stroke-linejoin="round" stroke-width="1.93379"/>
<use fill="#dc4c30" fill-rule="nonzero" opacity="1" stroke="none" vectornator:layerName="Rectangle" xlink:href="#Fill"/>
<clipPath clip-rule="nonzero" id="ClipPath">
<use xlink:href="#Fill"/>
</clipPath>
<g clip-path="url(#ClipPath)">
<g opacity="0">
<path d="M292.457 52.9822L324.43-0.436825" fill="none" opacity="1" stroke="#000000" stroke-linecap="round" stroke-linejoin="round" stroke-width="3"/>
<path d="M307.697 52.9822L339.67-0.436825" fill="none" opacity="1" stroke="#000000" stroke-linecap="round" stroke-linejoin="round" stroke-width="3"/>
<path d="M322.936 52.9822L354.909-0.436825" fill="none" opacity="1" stroke="#000000" stroke-linecap="round" stroke-linejoin="round" stroke-width="3"/>
<path d="M338.176 52.9822L370.149-0.436825" fill="none" opacity="1" stroke="#000000" stroke-linecap="round" stroke-linejoin="round" stroke-width="3"/>
<path d="M353.416 52.9822L385.389-0.436825" fill="none" opacity="1" stroke="#000000" stroke-linecap="round" stroke-linejoin="round" stroke-width="3"/>
</g>
<path d="M323.33 28.5751C323.33 20.3702 329.982 13.7189 338.186 13.7189C346.391 13.7189 353.043 20.3702 353.043 28.5751C353.043 36.78 346.391 43.4314 338.186 43.4314C329.982 43.4314 323.33 36.78 323.33 28.5751Z" fill="#ffe9ab" fill-rule="nonzero" opacity="1" stroke="#282828" stroke-linecap="round" stroke-linejoin="round" stroke-width="7.72935"/>
</g>
</g>
<g opacity="1" vectornator:layerName="Group 2">
<g filter="url(#Filter)" vectornator:layerName="Line 3" vectornator:shadowAngle="-1.56298" vectornator:shadowColor="#000000" vectornator:shadowOffset="0" vectornator:shadowOpacity="0.790208" vectornator:shadowRadius="11.1533">
<path d="M85.7986 3.17798C92.4391 3.17798 291.311 3.17798 291.311 3.17798" fill="none" stroke="#ffffff" stroke-linecap="round" stroke-linejoin="round" stroke-width="1"/>
<g fill="#ffffff" stroke="none">
<path d="M291.061 6.17798L292.061 6.17798L292.061 0.17798L291.061 0.17798L291.061 6.17798Z" fill="#ffffff"/>
<path d="M86.0486 0.17798L85.0486 0.17798L85.0486 6.17798L86.0486 6.17798L86.0486 0.17798Z" fill="#ffffff"/>
</g>
</g>
<g filter="url(#Filter_2)" vectornator:layerName="Line 2" vectornator:shadowAngle="-1.56298" vectornator:shadowColor="#000000" vectornator:shadowOffset="0" vectornator:shadowOpacity="0.790208" vectornator:shadowRadius="11.1533">
<path d="M85.7986 54.4588C92.4391 54.4588 291.311 54.4588 291.311 54.4588" fill="none" stroke="#ffffff" stroke-linecap="round" stroke-linejoin="round" stroke-width="1"/>
<g fill="#ffffff" stroke="none">
<path d="M291.061 57.4588L292.061 57.4588L292.061 51.4588L291.061 51.4588L291.061 57.4588Z" fill="#ffffff"/>
<path d="M86.0486 51.4588L85.0486 51.4588L85.0486 57.4588L86.0486 57.4588L86.0486 51.4588Z" fill="#ffffff"/>
</g>
</g>
</g>
</g>
</svg>
