<?xml version="1.0" encoding="UTF-8" standalone="no"?>
<!DOCTYPE svg PUBLIC "-//W3C//DTD SVG 1.1//EN" "http://www.w3.org/Graphics/SVG/1.1/DTD/svg11.dtd">
<!-- Created with Vectornator (http://vectornator.io/) -->
<svg height="100%" stroke-miterlimit="10" style="fill-rule:nonzero;clip-rule:evenodd;stroke-linecap:round;stroke-linejoin:round;" version="1.1" viewBox="0 0 296.043 56.4388" width="100%" xml:space="preserve" xmlns="http://www.w3.org/2000/svg" xmlns:vectornator="http://vectornator.io" xmlns:xlink="http://www.w3.org/1999/xlink">
<defs>
<filter color-interpolation-filters="sRGB" filterUnits="userSpaceOnUse" height="29.0187" id="Filter" width="217.939" x="33.9479" y="39.3505">
<feDropShadow dx="0" dy="-0" flood-color="#000000" flood-opacity="0.790208" in="SourceGraphic" result="Shadow" stdDeviation="5.60373"/>
</filter>
<filter color-interpolation-filters="sRGB" filterUnits="userSpaceOnUse" height="47.6415" id="Filter_2" width="47.5506" x="17.2955" y="26.4688">
<feDropShadow dx="0" dy="-0" flood-color="#000000" flood-opacity="0.790208" in="SourceGraphic" result="Shadow" stdDeviation="8.29183"/>
</filter>
</defs>
<clipPath id="ArtboardFrame">
<rect height="56.4388" width="296.043" x="0" y="0"/>
</clipPath>
<g clip-path="url(#ArtboardFrame)" id="Layer-1" vectornator:layerName="Layer 1">
<path d="M237.377 53.8598L48.4572 53.8598" fill="none" filter="url(#Filter)" stroke="#ffe9ab" stroke-linecap="round" stroke-linejoin="round" stroke-width="1" vectornator:shadowAngle="-1.56298" vectornator:shadowColor="#000000" vectornator:shadowOffset="0" vectornator:shadowOpacity="0.790208" vectornator:shadowRadius="11.2075"/>
<path d="M232.081 45.1242C232.081 43.4674 233.424 42.1242 235.081 42.1242L241.592 42.1242C243.249 42.1242 244.592 43.4674 244.592 45.1242L244.592 50.8598C244.592 52.5167 243.249 53.8598 241.592 53.8598L235.081 53.8598C233.424 53.8598 232.081 52.5167 232.081 50.8598L232.081 45.1242Z" fill="#ffac00" fill-rule="nonzero" opacity="1" stroke="#ffe9ab" stroke-linecap="butt" stroke-linejoin="round" stroke-width="0.918343"/>
<path d="M48.4572 53.8598L41.0708 50.2896" fill="none" opacity="1" stroke="#ffe9ab" stroke-linecap="round" stroke-linejoin="round" stroke-width="1" vectornator:layerName="Line 1"/>
<path d="M38.765 50.2896C38.765 51.5882 39.7973 52.6409 41.0708 52.6409C42.3443 52.6409 43.3767 51.5882 43.3767 50.2896C43.3767 48.9909 42.3443 47.9382 41.0708 47.9382C39.7973 47.9382 38.765 48.9909 38.765 50.2896Z" fill="#000000" fill-rule="nonzero" filter="url(#Filter_2)" stroke="#ffe9ab" stroke-linecap="butt" stroke-linejoin="round" stroke-width="1.4797" vectornator:shadowAngle="-1.56298" vectornator:shadowColor="#000000" vectornator:shadowOffset="0" vectornator:shadowOpacity="0.790208" vectornator:shadowRadius="16.5837"/>
<path d="M5.11894 55.4388C2.84411 55.4388 1 53.5947 1 51.3198L1 49.0458L5.63381 49.0458L5.63381 55.4388L5.11894 55.4388Z" fill="#ffac00" fill-rule="nonzero" opacity="1" stroke="none"/>
<path d="M290.828 4.40965C290.828 3.24569 291.772 2.30212 292.936 2.30212L292.936 2.30212C294.1 2.30212 295.043 3.24569 295.043 4.40965L295.043 52.0291C295.043 53.1931 294.1 54.1367 292.936 54.1367L292.936 54.1367C291.772 54.1367 290.828 53.1931 290.828 52.0291L290.828 4.40965Z" fill="#ffac00" fill-rule="nonzero" opacity="1" stroke="none" vectornator:layerName="Rectangle 1"/>
</g>
</svg>
