<?xml version="1.0" encoding="UTF-8" standalone="no"?>
<!DOCTYPE svg PUBLIC "-//W3C//DTD SVG 1.1//EN" "http://www.w3.org/Graphics/SVG/1.1/DTD/svg11.dtd">
<!-- Created with Vectornator (http://vectornator.io/) -->
<svg height="100%" stroke-miterlimit="10" style="fill-rule:nonzero;clip-rule:evenodd;stroke-linecap:round;stroke-linejoin:round;" version="1.1" viewBox="0 0 32.0379 32.0379" width="100%" xml:space="preserve" xmlns="http://www.w3.org/2000/svg" xmlns:vectornator="http://vectornator.io" xmlns:xlink="http://www.w3.org/1999/xlink">
<defs/>
<g id="Layer-1" vectornator:layerName="Layer 1">
<g opacity="1">
<path d="M16.0143 27.2814C16.4595 27.2814 16.9048 27.1498 17.3501 26.8867C17.7954 26.6235 18.3978 26.0903 19.1574 25.2871L28.7439 15.5648C29.0582 15.2601 29.2416 14.8931 29.294 14.4637C29.3464 14.0344 29.2416 13.6397 28.9797 13.2796C27.67 11.5346 25.8758 10.0111 23.5971 8.70928C21.3183 7.40744 18.7907 6.75651 16.0143 6.75651C13.1854 6.75651 10.6186 7.43514 8.3136 8.79238C6.00864 10.1496 4.22754 11.7285 2.97028 13.5289C2.76074 13.8613 2.68871 14.2075 2.75419 14.5676C2.81968 14.9277 3.00957 15.2601 3.32389 15.5648L12.8711 25.2871C13.6307 26.0626 14.2397 26.5889 14.6981 26.8659C15.1565 27.1429 15.5952 27.2814 16.0143 27.2814Z" fill="#282828" fill-rule="nonzero" opacity="1" stroke="#ffffff" stroke-linecap="round" stroke-linejoin="round" stroke-width="0.963614" vectornator:layerName="Curve"/>
<g opacity="1" vectornator:layerName="Group 1">
<path d="M16.2481 25.4729C16.3542 25.4729 16.4603 25.4416 16.5664 25.3789C16.6725 25.3162 16.816 25.1891 16.997 24.9977L19.2813 22.6811C19.3562 22.6085 19.3999 22.521 19.4124 22.4187C19.4248 22.3164 19.3999 22.2224 19.3375 22.1366C19.0254 21.7208 18.5979 21.3578 18.0549 21.0476C17.5119 20.7374 16.9097 20.5823 16.2481 20.5823C15.574 20.5823 14.9624 20.744 14.4132 21.0674C13.864 21.3908 13.4396 21.767 13.14 22.196C13.0901 22.2752 13.0729 22.3577 13.0885 22.4435C13.1041 22.5293 13.1494 22.6085 13.2243 22.6811L15.4992 24.9977C15.6801 25.1825 15.8253 25.3079 15.9345 25.3739C16.0437 25.4399 16.1482 25.4729 16.2481 25.4729Z" fill="#787878" fill-rule="nonzero" opacity="1" stroke="#000000" stroke-linecap="round" stroke-linejoin="round" stroke-width="0.963614"/>
<path d="M10.7808 20.0873C10.8807 20.1863 10.9884 20.2308 11.1038 20.2209C11.2193 20.211 11.3238 20.1533 11.4174 20.0477C11.9791 19.3877 12.6906 18.8432 13.5519 18.4142C14.4132 17.9852 15.3119 17.774 16.2481 17.7806C17.1967 17.774 18.1017 17.9901 18.963 18.429C19.8243 18.8679 20.542 19.4174 21.1162 20.0774C21.2036 20.1764 21.3034 20.2259 21.4158 20.2259C21.5281 20.2259 21.6311 20.1764 21.7247 20.0774L23.1758 18.5528C23.2507 18.4736 23.2912 18.3828 23.2975 18.2805C23.3037 18.1782 23.2725 18.0842 23.2039 17.9984C22.7358 17.3846 22.1444 16.8368 21.4298 16.355C20.7152 15.8732 19.9163 15.492 19.0332 15.2115C18.1501 14.931 17.2217 14.7908 16.2481 14.7908C15.2745 14.7908 14.3477 14.931 13.4677 15.2115C12.5877 15.492 11.7903 15.8732 11.0757 16.355C10.3611 16.8368 9.76665 17.3846 9.29233 17.9984C9.22367 18.0842 9.19247 18.1766 9.19871 18.2756C9.20495 18.3746 9.24864 18.467 9.32977 18.5528L10.7808 20.0873Z" fill="#787878" fill-rule="nonzero" opacity="1" stroke="#000000" stroke-linecap="round" stroke-linejoin="round" stroke-width="0.963614"/>
<path d="M6.88636 15.9491C6.97374 16.0481 7.07828 16.0959 7.19998 16.0926C7.32168 16.0893 7.42622 16.0382 7.5136 15.9392C8.66197 14.6456 9.98041 13.6638 11.4689 12.9939C12.9574 12.324 14.5505 11.989 16.2481 11.989C17.9582 11.989 19.559 12.3256 21.0507 12.9989C22.5423 13.6721 23.8592 14.6555 25.0013 15.9491C25.0887 16.0415 25.1901 16.086 25.3056 16.0827C25.421 16.0794 25.5224 16.0283 25.6098 15.9293L26.9017 14.5631C26.9829 14.4707 27.025 14.375 27.0281 14.276C27.0312 14.177 26.9985 14.0846 26.9298 13.9988C26.1996 13.0418 25.2759 12.1887 24.1588 11.4396C23.0416 10.6905 21.8058 10.0998 20.4515 9.66748C19.0972 9.23518 17.696 9.01903 16.2481 9.01903C14.8001 9.01903 13.399 9.23353 12.0447 9.66253C10.6903 10.0915 9.4546 10.6822 8.33743 11.4346C7.22026 12.187 6.29657 13.0418 5.56636 13.9988C5.50395 14.0846 5.4743 14.177 5.47742 14.276C5.48054 14.375 5.51955 14.4707 5.59444 14.5631L6.88636 15.9491Z" fill="#787878" fill-rule="nonzero" opacity="1" stroke="#000000" stroke-linecap="round" stroke-linejoin="round" stroke-width="0.963614"/>
</g>
</g>
</g>
</svg>
