<?xml version="1.0" encoding="UTF-8" standalone="no"?>
<!DOCTYPE svg PUBLIC "-//W3C//DTD SVG 1.1//EN" "http://www.w3.org/Graphics/SVG/1.1/DTD/svg11.dtd">
<!-- Created with Vectornator (http://vectornator.io/) -->
<svg height="100%" stroke-miterlimit="10" style="fill-rule:nonzero;clip-rule:evenodd;stroke-linecap:round;stroke-linejoin:round;" version="1.1" viewBox="0 0 226 26" width="100%" xml:space="preserve" xmlns="http://www.w3.org/2000/svg" xmlns:vectornator="http://vectornator.io" xmlns:xlink="http://www.w3.org/1999/xlink">
<defs>
<filter color-interpolation-filters="sRGB" filterUnits="userSpaceOnUse" height="31.6" id="Filter" width="31.6" x="149.046" y="-2.72039">
<feDropShadow dx="0" dy="-0" flood-color="#000000" flood-opacity="0.997748" in="SourceGraphic" result="Shadow" stdDeviation="3"/>
</filter>
<filter color-interpolation-filters="sRGB" filterUnits="userSpaceOnUse" height="12.2863" id="Filter_2" width="14.1686" x="157.617" y="6.94039">
<feDropShadow dx="0" dy="-0" flood-color="#000000" flood-opacity="0.6" in="SourceGraphic" result="Shadow" stdDeviation="1"/>
</filter>
<filter color-interpolation-filters="sRGB" filterUnits="userSpaceOnUse" height="31.6" id="Filter_3" width="31.6" x="168.355" y="-2.72039">
<feDropShadow dx="0" dy="-0" flood-color="#000000" flood-opacity="1" in="SourceGraphic" result="Shadow" stdDeviation="3"/>
</filter>
<filter color-interpolation-filters="sRGB" filterUnits="userSpaceOnUse" height="14.5137" id="Filter_4" width="13.4392" x="177.436" y="5.85804">
<feDropShadow dx="0" dy="-0" flood-color="#000000" flood-opacity="0.6" in="SourceGraphic" result="Shadow" stdDeviation="1"/>
</filter>
<filter color-interpolation-filters="sRGB" filterUnits="userSpaceOnUse" height="31.6" id="Filter_5" width="31.6" x="187.613" y="-2.72039">
<feDropShadow dx="0" dy="-0" flood-color="#000000" flood-opacity="1" in="SourceGraphic" result="Shadow" stdDeviation="3"/>
</filter>
<filter color-interpolation-filters="sRGB" filterUnits="userSpaceOnUse" height="15.6039" id="Filter_6" width="14.1765" x="196.317" y="5.27764">
<feDropShadow dx="0" dy="-0" flood-color="#000000" flood-opacity="0.6" in="SourceGraphic" result="Shadow" stdDeviation="1"/>
</filter>
</defs>
<clipPath id="ArtboardFrame">
<rect height="26" width="226" x="0" y="0"/>
</clipPath>
<g clip-path="url(#ArtboardFrame)" id="Layer-1" vectornator:layerName="Layer 1">
<g opacity="1" vectornator:layerName="SensorControls">
<g opacity="1">
<path d="M203.656 1.23438C203.179 1.23437 202.834 1.52934 202.438 1.73438L202.969 1.73438C209.221 1.73438 214.281 6.79468 214.281 13.0469C214.281 19.2989 209.221 24.3595 202.969 24.3594L202.688 24.3594C203.02 24.4932 203.276 24.7656 203.656 24.7656L214.969 24.7656C216.562 24.7656 224.156 24.7656 224.156 24.7656C221.515 23.3166 218.02 20.0595 217.812 13.0156L217.844 4.14062C217.844 2.54736 216.562 1.23438 214.969 1.23438L203.656 1.23438Z" fill="#ffe9ab" fill-rule="nonzero" opacity="1" stroke="none"/>
<path d="M13.1562 1.73438C6.90429 1.73444 1.84375 6.79489 1.84375 13.0469C1.84375 19.2989 6.90427 24.3594 13.1562 24.3594L202.688 24.3594L202.969 24.3594C209.221 24.3595 214.281 19.2989 214.281 13.0469C214.281 6.79468 209.221 1.73438 202.969 1.73438L202.438 1.73438L13.1562 1.73438Z" fill="#444444" fill-opacity="0.892224" fill-rule="nonzero" opacity="1" stroke="#ffe9ab" stroke-linecap="round" stroke-linejoin="round" stroke-width="1"/>
<path d="M153.774 24.7656L153.774 1.72336" fill="none" opacity="1" stroke="#ffe9ab" stroke-linecap="butt" stroke-linejoin="round" stroke-width="1"/>
</g>
<g opacity="0">
<g opacity="1">
<path d="M132.861 4.83282C132.724 4.78891 132.564 4.79798 132.432 4.86344C132.3 4.9293 132.231 5.02847 132.187 5.16959C132.143 5.3057 132.152 5.43677 132.218 5.56758C132.283 5.69931 132.383 5.79433 132.524 5.84312L138.341 7.74124L131.115 7.74124C130.426 7.74124 129.899 7.92142 129.554 8.2617C129.209 8.60199 129.034 9.11237 129.034 9.79244L129.034 17.8136C129.034 18.4941 129.209 19.0042 129.554 19.3443C129.899 19.6846 130.426 19.8652 131.115 19.8648L142.504 19.8648C143.198 19.8648 143.692 19.6846 144.035 19.3443C144.377 19.004 144.555 18.4933 144.555 17.8136L144.555 9.79244C144.555 9.11186 144.377 8.60214 144.035 8.2617C143.692 7.9214 143.198 7.74025 142.504 7.74124L141.739 7.74124L132.861 4.83282Z" fill="#282828" fill-rule="nonzero" opacity="1" stroke="#ffffff" stroke-linecap="round" stroke-linejoin="round" stroke-width="0.6"/>
<path d="M131.79 8.9627L141.817 8.9627C142.661 8.9627 143.345 9.47518 143.345 10.1074L143.345 17.6158C143.345 18.248 142.661 18.7604 141.817 18.7604L131.79 18.7604C130.946 18.7604 130.262 18.248 130.262 17.6158L130.262 10.1074C130.262 9.47518 130.946 8.9627 131.79 8.9627Z" fill="#ff9a44" fill-rule="nonzero" opacity="1" stroke="none"/>
<g opacity="1">
<path d="M141.128 11.1721C141.41 11.1764 141.669 11.2667 141.872 11.4699C142.075 11.6728 142.17 11.9028 142.17 12.1846C142.17 12.4665 142.075 12.7308 141.872 12.9291C141.669 13.1278 141.409 13.2227 141.128 13.227C140.841 13.2312 140.616 13.1317 140.413 12.9291C140.21 12.7263 140.115 12.4662 140.115 12.1846C140.115 11.9027 140.21 11.6764 140.413 11.4699C140.616 11.2627 140.841 11.1682 141.128 11.1721Z" fill="#ffffff" fill-rule="nonzero" opacity="1" stroke="#000000" stroke-linecap="round" stroke-linejoin="round" stroke-width="0.6"/>
<path d="M141.128 14.1502C141.41 14.1502 141.669 14.277 141.872 14.4777C142.075 14.6785 142.17 14.9059 142.17 15.1925C142.17 15.4787 142.075 15.7341 141.872 15.937C141.669 16.1399 141.409 16.2348 141.128 16.2348C140.841 16.2348 140.616 16.1399 140.413 15.937C140.21 15.7341 140.115 15.4787 140.115 15.1925C140.115 14.9063 140.21 14.6786 140.413 14.4777C140.616 14.277 140.841 14.1504 141.128 14.1502Z" fill="#ffffff" fill-rule="nonzero" opacity="1" stroke="#000000" stroke-linecap="round" stroke-linejoin="round" stroke-width="0.6" vectornator:layerName="Curve"/>
</g>
<g opacity="1" vectornator:layerName="Group">
<path d="M135.261 9.98086C135.393 9.98086 135.496 10.0336 135.588 10.1298C135.68 10.2259 135.708 10.3546 135.708 10.4871C135.708 10.6238 135.68 10.7468 135.588 10.8445C135.497 10.9427 135.393 10.9925 135.261 10.9934C135.124 10.9934 134.997 10.9427 134.903 10.8445C134.809 10.7463 134.754 10.6247 134.755 10.4871C134.755 10.3547 134.81 10.2251 134.903 10.1298C134.997 10.0337 135.124 9.98095 135.261 9.98086Z" fill="#000000" fill-rule="nonzero" opacity="1" stroke="none"/>
<path d="M133.593 10.4573C133.726 10.4573 133.861 10.5101 133.95 10.6063C134.04 10.7024 134.07 10.8267 134.07 10.9636C134.07 11.096 134.04 11.1961 133.95 11.2912C133.861 11.3873 133.725 11.44 133.593 11.4401C133.456 11.4401 133.357 11.3874 133.266 11.2912C133.174 11.1951 133.117 11.096 133.117 10.9636C133.117 10.8269 133.174 10.7021 133.266 10.6063C133.357 10.5102 133.457 10.4574 133.593 10.4573Z" fill="#000000" fill-rule="nonzero" opacity="1" stroke="none"/>
<path d="M136.869 10.4573C137.01 10.4573 137.135 10.5101 137.226 10.6063C137.318 10.7024 137.375 10.8267 137.375 10.9636C137.375 11.096 137.318 11.1961 137.226 11.2912C137.135 11.3873 137.01 11.44 136.869 11.4401C136.741 11.4401 136.633 11.3874 136.541 11.2912C136.45 11.1951 136.422 11.096 136.422 10.9636C136.422 10.8269 136.45 10.7021 136.541 10.6063C136.633 10.5102 136.741 10.4574 136.869 10.4573Z" fill="#000000" fill-rule="nonzero" opacity="1" stroke="none"/>
<path d="M132.372 11.6486C132.5 11.6486 132.608 11.6993 132.7 11.7975C132.792 11.8957 132.849 12.0133 132.849 12.1548C132.849 12.283 132.792 12.3881 132.7 12.4824C132.608 12.5764 132.5 12.6313 132.372 12.6313C132.24 12.6313 132.143 12.5764 132.045 12.4824C131.946 12.3885 131.896 12.283 131.896 12.1548C131.896 12.0139 131.946 11.8957 132.045 11.7975C132.143 11.6992 132.24 11.6495 132.372 11.6486Z" fill="#000000" fill-rule="nonzero" opacity="1" stroke="none"/>
<path d="M138.12 11.6486C138.252 11.6486 138.351 11.6993 138.447 11.7975C138.543 11.8957 138.596 12.0133 138.596 12.1548C138.596 12.283 138.543 12.3881 138.447 12.4824C138.351 12.5764 138.252 12.6313 138.12 12.6313C137.987 12.6313 137.854 12.5764 137.762 12.4824C137.671 12.3885 137.643 12.283 137.643 12.1548C137.643 12.0139 137.671 11.8957 137.762 11.7975C137.854 11.6992 137.987 11.6495 138.12 11.6486Z" fill="#000000" fill-rule="nonzero" opacity="1" stroke="none"/>
<path d="M135.261 11.6784C135.393 11.6784 135.496 11.7291 135.588 11.8273C135.68 11.9255 135.708 12.0471 135.708 12.1846C135.708 12.317 135.68 12.4191 135.588 12.5122C135.497 12.6062 135.393 12.6611 135.261 12.6611C135.124 12.6611 134.997 12.6061 134.903 12.5122C134.809 12.4183 134.754 12.3173 134.755 12.1846C134.755 12.048 134.81 11.9249 134.903 11.8273C134.997 11.729 135.124 11.6792 135.261 11.6784Z" fill="#000000" fill-rule="nonzero" opacity="1" stroke="none"/>
<path d="M133.712 12.3633C133.845 12.3633 133.941 12.3863 134.04 12.4824C134.138 12.5785 134.189 12.7072 134.189 12.8398C134.189 12.9679 134.138 13.0709 134.04 13.1674C133.942 13.2635 133.845 13.3162 133.712 13.3163C133.58 13.3163 133.447 13.2635 133.355 13.1674C133.263 13.0713 133.236 12.9679 133.236 12.8398C133.236 12.7074 133.263 12.5777 133.355 12.4824C133.447 12.3863 133.58 12.3634 133.712 12.3633Z" fill="#000000" fill-rule="nonzero" opacity="1" stroke="none"/>
<path d="M136.78 12.3633C136.912 12.3633 137.015 12.3863 137.107 12.4824C137.199 12.5785 137.256 12.7072 137.256 12.8398C137.256 12.9679 137.199 13.0709 137.107 13.1674C137.015 13.2635 136.912 13.3162 136.78 13.3163C136.647 13.3163 136.519 13.2635 136.422 13.1674C136.326 13.0713 136.303 12.9679 136.303 12.8398C136.303 12.7074 136.326 12.5777 136.422 12.4824C136.518 12.3863 136.647 12.3634 136.78 12.3633Z" fill="#000000" fill-rule="nonzero" opacity="1" stroke="none"/>
<path d="M131.955 13.2567C132.088 13.2567 132.218 13.282 132.313 13.3759C132.407 13.4698 132.432 13.6006 132.432 13.7332C132.432 13.8656 132.406 13.9678 132.313 14.0608C132.219 14.1548 132.087 14.2097 131.955 14.2097C131.823 14.2097 131.722 14.1547 131.628 14.0608C131.534 13.9668 131.479 13.8657 131.479 13.7332C131.479 13.6008 131.534 13.469 131.628 13.3759C131.722 13.2819 131.823 13.2568 131.955 13.2567Z" fill="#000000" fill-rule="nonzero" opacity="1" stroke="none"/>
<path d="M138.537 13.2567C138.665 13.2567 138.77 13.282 138.864 13.3759C138.958 13.4698 139.013 13.6006 139.013 13.7332C139.013 13.8656 138.958 13.9678 138.864 14.0608C138.77 14.1548 138.665 14.2097 138.537 14.2097C138.404 14.2097 138.273 14.1547 138.179 14.0608C138.085 13.9668 138.06 13.8657 138.06 13.7332C138.06 13.6008 138.085 13.469 138.179 13.3759C138.273 13.2819 138.404 13.2568 138.537 13.2567Z" fill="#000000" fill-rule="nonzero" opacity="1" stroke="none"/>
<path d="M135.261 13.2865C135.393 13.2865 135.496 13.3116 135.588 13.4056C135.68 13.4996 135.708 13.6305 135.708 13.763C135.708 13.8954 135.68 13.9976 135.588 14.0906C135.497 14.1846 135.393 14.2393 135.261 14.2395C135.124 14.2395 134.997 14.1846 134.903 14.0906C134.809 13.9966 134.754 13.8955 134.755 13.763C134.755 13.6306 134.81 13.4986 134.903 13.4056C134.997 13.3117 135.124 13.2867 135.261 13.2865Z" fill="#000000" fill-rule="nonzero" opacity="1" stroke="none"/>
<path d="M133.712 14.1799C133.845 14.1799 133.941 14.2327 134.04 14.3288C134.138 14.4249 134.189 14.5495 134.189 14.6862C134.189 14.8186 134.138 14.9208 134.04 15.0138C133.942 15.1078 133.845 15.1627 133.712 15.1627C133.58 15.1627 133.447 15.1078 133.355 15.0138C133.263 14.9198 133.236 14.8187 133.236 14.6862C133.236 14.5495 133.263 14.4245 133.355 14.3288C133.447 14.2327 133.58 14.18 133.712 14.1799Z" fill="#000000" fill-rule="nonzero" opacity="1" stroke="none"/>
<path d="M136.78 14.1799C136.912 14.1799 137.015 14.2327 137.107 14.3288C137.199 14.4249 137.256 14.5495 137.256 14.6862C137.256 14.8186 137.199 14.9208 137.107 15.0138C137.015 15.1078 136.912 15.1627 136.78 15.1627C136.647 15.1627 136.519 15.1078 136.422 15.0138C136.326 14.9198 136.303 14.8187 136.303 14.6862C136.303 14.5495 136.326 14.4245 136.422 14.3288C136.518 14.2327 136.647 14.18 136.78 14.1799Z" fill="#000000" fill-rule="nonzero" opacity="1" stroke="none"/>
<path d="M132.372 14.8053C132.5 14.8053 132.608 14.8604 132.7 14.9542C132.792 15.0482 132.849 15.1789 132.849 15.3116C132.849 15.4483 132.792 15.5415 132.7 15.6392C132.608 15.7374 132.5 15.7872 132.372 15.7881C132.24 15.7881 132.143 15.7374 132.045 15.6392C131.946 15.541 131.896 15.4491 131.896 15.3116C131.896 15.1792 131.946 15.0474 132.045 14.9542C132.143 14.8603 132.24 14.8054 132.372 14.8053Z" fill="#000000" fill-rule="nonzero" opacity="1" stroke="none"/>
<path d="M138.12 14.8053C138.252 14.8053 138.351 14.8604 138.447 14.9542C138.543 15.0482 138.596 15.1789 138.596 15.3116C138.596 15.4483 138.543 15.5415 138.447 15.6392C138.351 15.7374 138.252 15.7872 138.12 15.7881C137.987 15.7881 137.854 15.7374 137.762 15.6392C137.671 15.541 137.643 15.4491 137.643 15.3116C137.643 15.1792 137.671 15.0474 137.762 14.9542C137.854 14.8603 137.987 14.8054 138.12 14.8053Z" fill="#000000" fill-rule="nonzero" opacity="1" stroke="none" vectornator:layerName="Curve"/>
<path d="M135.261 14.8649C135.393 14.8649 135.496 14.8901 135.588 14.984C135.68 15.078 135.708 15.2087 135.708 15.3414C135.708 15.4781 135.68 15.6011 135.588 15.6988C135.497 15.797 135.393 15.817 135.261 15.8179C135.124 15.8179 134.997 15.7969 134.903 15.6988C134.809 15.6005 134.754 15.4789 134.755 15.3414C134.755 15.209 134.81 15.0771 134.903 14.984C134.997 14.89 135.124 14.8649 135.261 14.8649Z" fill="#000000" fill-rule="nonzero" opacity="1" stroke="none"/>
<path d="M133.593 16.0263C133.726 16.0263 133.861 16.0792 133.95 16.1752C134.04 16.2713 134.07 16.4001 134.07 16.5326C134.07 16.6693 134.04 16.7645 133.95 16.8602C133.861 16.9563 133.725 17.0089 133.593 17.0091C133.456 17.0091 133.357 16.9565 133.266 16.8602C133.174 16.7641 133.117 16.6694 133.117 16.5326C133.117 16.4002 133.174 16.2705 133.266 16.1752C133.357 16.0791 133.457 16.0263 133.593 16.0263Z" fill="#000000" fill-rule="nonzero" opacity="1" stroke="none"/>
<path d="M136.869 16.0263C137.01 16.0263 137.135 16.0792 137.226 16.1752C137.318 16.2713 137.375 16.4001 137.375 16.5326C137.375 16.6693 137.318 16.7645 137.226 16.8602C137.135 16.9563 137.01 17.0089 136.869 17.0091C136.741 17.0091 136.633 16.9565 136.541 16.8602C136.45 16.7641 136.422 16.6694 136.422 16.5326C136.422 16.4002 136.45 16.2705 136.541 16.1752C136.633 16.0791 136.741 16.0263 136.869 16.0263Z" fill="#000000" fill-rule="nonzero" opacity="1" stroke="none" vectornator:layerName="Curve"/>
<path d="M135.261 16.5326C135.393 16.5326 135.496 16.5832 135.588 16.6815C135.68 16.7798 135.708 16.9014 135.708 17.0389C135.708 17.1713 135.68 17.2712 135.588 17.3665C135.497 17.4626 135.393 17.5153 135.261 17.5154C135.124 17.5154 134.997 17.4626 134.903 17.3665C134.809 17.2704 134.754 17.1714 134.755 17.0389C134.755 16.9022 134.81 16.7792 134.903 16.6815C134.997 16.5833 135.124 16.5331 135.261 16.5326Z" fill="#000000" fill-rule="nonzero" opacity="1" stroke="none"/>
</g>
</g>
<g opacity="1">
<path d="M111.769 19.5839C112.046 19.5839 112.323 19.5019 112.601 19.3381C112.878 19.1743 113.253 18.8422 113.726 18.3421L119.695 12.2884C119.891 12.0987 120.005 11.8702 120.037 11.6029C120.07 11.3356 120.005 11.0898 119.842 10.8656C119.026 9.77902 117.909 8.83045 116.49 8.01984C115.071 7.20924 113.498 6.80394 111.769 6.80394C110.007 6.80394 108.409 7.22649 106.974 8.07158C105.539 8.91668 104.43 9.89975 103.647 11.0208C103.516 11.2278 103.472 11.4433 103.512 11.6676C103.553 11.8918 103.671 12.0987 103.867 12.2884L109.812 18.3421C110.285 18.825 110.664 19.1527 110.949 19.3252C111.235 19.4976 111.508 19.5839 111.769 19.5839Z" fill="#282828" fill-rule="nonzero" opacity="1" stroke="#ffffff" stroke-linecap="round" stroke-linejoin="round" stroke-width="0.6" vectornator:layerName="Curve"/>
<path d="M111.914 18.4578C111.98 18.4578 112.047 18.4383 112.113 18.3993C112.179 18.3602 112.268 18.2811 112.381 18.1619L113.803 16.7195C113.85 16.6743 113.877 16.6198 113.885 16.5561C113.892 16.4924 113.877 16.4339 113.838 16.3804C113.644 16.1215 113.377 15.8955 113.039 15.7024C112.701 15.5092 112.326 15.4126 111.914 15.4126C111.495 15.4126 111.114 15.5133 110.772 15.7147C110.43 15.9161 110.166 16.1503 109.979 16.4174C109.948 16.4667 109.937 16.5181 109.947 16.5715C109.957 16.625 109.985 16.6743 110.032 16.7195L111.448 18.1619C111.561 18.277 111.651 18.3551 111.719 18.3962C111.787 18.4373 111.852 18.4578 111.914 18.4578Z" fill="#ff9a44" fill-rule="nonzero" opacity="1" stroke="none"/>
<path d="M108.51 15.1044C108.572 15.1661 108.639 15.1938 108.711 15.1876C108.783 15.1815 108.848 15.1455 108.907 15.0798C109.256 14.6688 109.699 14.3298 110.236 14.0627C110.772 13.7955 111.331 13.664 111.914 13.6681C112.505 13.664 113.069 13.7986 113.605 14.0719C114.141 14.3452 114.588 14.6873 114.946 15.0983C115 15.1599 115.062 15.1907 115.132 15.1907C115.202 15.1907 115.266 15.1599 115.324 15.0983L116.228 14.149C116.275 14.0996 116.3 14.0431 116.304 13.9794C116.308 13.9157 116.288 13.8572 116.245 13.8038C115.954 13.4216 115.586 13.0805 115.141 12.7805C114.696 12.4805 114.198 12.2432 113.649 12.0685C113.099 11.8938 112.521 11.8065 111.914 11.8065C111.308 11.8065 110.731 11.8938 110.183 12.0685C109.635 12.2432 109.139 12.4805 108.694 12.7805C108.249 13.0805 107.879 13.4216 107.583 13.8038C107.541 13.8572 107.521 13.9147 107.525 13.9764C107.529 14.038 107.556 14.0955 107.607 14.149L108.51 15.1044Z" fill="#ff9a44" fill-rule="nonzero" opacity="1" stroke="none"/>
<path d="M106.085 12.5277C106.14 12.5894 106.205 12.6192 106.281 12.6171C106.356 12.6151 106.421 12.5832 106.476 12.5216C107.191 11.7161 108.012 11.1048 108.939 10.6877C109.865 10.2706 110.857 10.062 111.914 10.062C112.979 10.062 113.976 10.2716 114.905 10.6908C115.834 11.1099 116.653 11.7223 117.365 12.5277C117.419 12.5853 117.482 12.613 117.554 12.611C117.626 12.6089 117.689 12.5771 117.744 12.5154L118.548 11.6647C118.598 11.6072 118.625 11.5476 118.627 11.486C118.629 11.4243 118.608 11.3668 118.565 11.3134C118.111 10.7175 117.536 10.1863 116.84 9.71989C116.144 9.25345 115.375 8.88565 114.532 8.61647C113.688 8.3473 112.816 8.21271 111.914 8.21271C111.013 8.21271 110.14 8.34627 109.297 8.61339C108.454 8.88051 107.684 9.24832 106.989 9.71681C106.293 10.1853 105.718 10.7175 105.263 11.3134C105.224 11.3668 105.206 11.4243 105.208 11.486C105.21 11.5476 105.234 11.6072 105.281 11.6647L106.085 12.5277Z" fill="#ff9a44" fill-rule="nonzero" opacity="1" stroke="none"/>
</g>
<g opacity="1">
<path d="M92.7041 5.9975C92.2756 5.96007 91.8717 6.04381 91.5295 6.20306C89.1218 7.32448 84.3055 9.57435 81.8978 10.6959C81.6018 10.8372 81.3196 11.0634 81.105 11.3713C80.9183 11.6392 80.7779 11.9646 80.7526 12.3109C80.7291 12.6323 80.7895 12.9859 80.9288 13.28C81.0822 13.6043 81.3212 13.8645 81.6042 14.0435C81.951 14.2627 82.3513 14.3372 82.6907 14.3371C83.5385 14.3405 84.9211 14.3325 86.0676 14.3371C86.0707 15.4797 86.0654 16.8691 86.0676 17.7141C86.0676 18.0485 86.1533 18.4303 86.3613 18.7712C86.5382 19.0613 86.8023 19.3192 87.1248 19.476C87.4308 19.6247 87.7859 19.6866 88.1232 19.6522C88.4784 19.616 88.8015 19.4592 89.0628 19.2704C89.387 19.0363 89.5988 18.7341 89.7382 18.4188C90.8515 16.0133 93.0884 11.2221 94.2017 8.81653C94.2018 8.81634 94.2016 8.78749 94.2017 8.78716C94.3644 8.43516 94.4745 8.01611 94.4072 7.55384C94.35 7.16011 94.149 6.76496 93.82 6.46734C93.5001 6.17815 93.0874 6.03089 92.7041 5.9975Z" fill="#282828" fill-rule="nonzero" opacity="1" stroke="#ffffff" stroke-linecap="round" stroke-linejoin="round" stroke-width="0.6" vectornator:layerName="Curve"/>
<path d="M82.8193 13.1835L87.094 13.2008C87.1704 13.2008 87.2086 13.2392 87.2086 13.3159L87.2201 17.576C87.2201 17.7525 87.2564 17.9003 87.329 18.0193C87.4016 18.1383 87.4971 18.2265 87.6155 18.2841C87.7339 18.3417 87.859 18.3637 87.9908 18.3503C88.1226 18.3369 88.2496 18.286 88.3719 18.1977C88.4941 18.1095 88.5934 17.979 88.6698 17.8063L93.0019 8.44562C93.1012 8.2307 93.1384 8.03784 93.1136 7.86706C93.0888 7.69627 93.0191 7.55906 92.9045 7.45544C92.7899 7.35182 92.6447 7.29233 92.469 7.27698C92.2932 7.26163 92.1022 7.30192 91.8959 7.39787L82.5271 11.7616C82.3743 11.8345 82.2577 11.9285 82.1775 12.0437C82.0973 12.1588 82.0524 12.2816 82.0429 12.4121C82.0333 12.5426 82.0562 12.6664 82.1116 12.7834C82.167 12.9005 82.2539 12.9964 82.3723 13.0713C82.4908 13.1461 82.6398 13.1835 82.8193 13.1835Z" fill="#ff9a44" fill-rule="nonzero" opacity="1" stroke="none" vectornator:layerName="Curve"/>
</g>
<g opacity="1">
<path d="M66.7671 5.31789C65.7014 5.31789 64.7025 5.53926 63.8435 6.02268C62.9965 6.49944 62.3068 7.1803 61.8336 8.03264C61.3537 8.89683 61.1288 9.88407 61.1288 10.9562C61.1288 12.3041 61.1288 15.0117 61.1288 16.3596C61.1288 17.0345 61.2695 17.6747 61.5725 18.2391C61.8701 18.7932 62.3036 19.237 62.8516 19.5442C63.4076 19.8559 64.0396 19.9881 64.705 19.988C65.4447 19.988 66.1573 19.8486 66.7671 19.492C67.3717 19.1384 67.8492 18.6106 68.2028 17.978C68.3383 17.7356 68.6154 17.2546 68.751 17.0122C68.7536 17.0075 68.7484 16.9908 68.751 16.9861C68.9335 16.6457 69.1268 16.3586 69.3253 16.1247C69.5542 15.8548 69.8006 15.616 70.03 15.3938C70.2918 15.1403 70.5468 14.8894 70.787 14.6368C71.0577 14.352 71.2797 14.0269 71.4918 13.6971C71.7272 13.3309 71.9123 12.9374 72.04 12.4963C72.1775 12.0217 72.2488 11.4935 72.2488 10.9301C72.2488 9.86653 72.0325 8.89135 71.5701 8.03264C71.1132 7.18409 70.4433 6.5003 69.6124 6.02268C68.7705 5.53881 67.812 5.31787 66.7671 5.31789Z" fill="#282828" fill-rule="nonzero" opacity="1" stroke="#ffffff" stroke-linecap="round" stroke-linejoin="round" stroke-width="0.6"/>
<path d="M62.2827 16.176C62.2827 16.7037 62.3869 17.1616 62.5953 17.5497C62.8037 17.9379 63.0972 18.238 63.4757 18.4503C63.8543 18.6625 64.2998 18.7686 64.8122 18.7686C65.3896 18.7686 65.8924 18.6434 66.3207 18.3929C66.749 18.1424 67.0989 17.7744 67.3704 17.2888L67.8866 16.3653C68.0855 15.9944 68.3025 15.6703 68.5376 15.3931C68.7728 15.1158 69.0108 14.8606 69.2518 14.6273C69.4927 14.3941 69.7231 14.1618 69.9429 13.9304C70.1628 13.6991 70.3588 13.4496 70.5309 13.1819C70.7029 12.9142 70.8396 12.6054 70.941 12.2555C71.0423 11.9057 71.093 11.4936 71.093 11.0195C71.093 10.1247 70.9123 9.34172 70.5509 8.67062C70.1896 7.99953 69.6829 7.47661 69.0309 7.10186C68.3789 6.72712 67.6189 6.53975 66.7509 6.53975C65.8599 6.53975 65.0799 6.72808 64.4107 7.10473C63.7415 7.48139 63.2195 8.00717 62.8448 8.68209C62.47 9.35701 62.2827 10.1438 62.2827 11.0424L62.2827 16.176Z" fill="#ff9a44" fill-rule="nonzero" opacity="1" stroke="none"/>
<path d="M63.6819 13.7505L63.6819 10.7446C63.6819 10.1823 63.8064 9.68838 64.0553 9.26269C64.3043 8.837 64.6587 8.50568 65.1186 8.26874C65.5784 8.03179 66.1216 7.91332 66.7481 7.91332C67.3545 7.91332 67.8786 8.03179 68.3203 8.26874C68.7621 8.50568 69.1024 8.837 69.3414 9.26269C69.5803 9.68838 69.6998 10.1823 69.6998 10.7446C69.6998 10.8691 69.6546 10.9765 69.5643 11.0669C69.4739 11.1572 69.3665 11.2024 69.242 11.2024C69.1215 11.2024 69.0161 11.1572 68.9257 11.0669C68.8354 10.9765 68.7902 10.8691 68.7902 10.7446C68.7902 10.1623 68.6105 9.69641 68.251 9.34703C67.8916 8.99764 67.3906 8.82294 66.7481 8.82294C66.2983 8.82294 65.9117 8.90326 65.5884 9.0639C65.2652 9.22454 65.0182 9.44843 64.8475 9.73557C64.6768 10.0227 64.5915 10.3591 64.5915 10.7446L64.5915 11.5096L66.4107 11.5096C66.8967 11.5096 67.2882 11.6462 67.5854 11.9193C67.8826 12.1923 68.0312 12.5498 68.0312 12.9915C68.0312 13.1763 67.994 13.374 67.9197 13.5849C67.8454 13.7957 67.746 13.9795 67.6215 14.1361L66.8384 15.13C66.734 15.2626 66.6095 15.3288 66.4649 15.3288C66.3404 15.3288 66.233 15.2846 66.1427 15.1963C66.0523 15.1079 66.0071 15.0015 66.0071 14.877C66.0071 14.7606 66.0473 14.6521 66.1276 14.5517L66.8505 13.6421C66.9228 13.5538 66.981 13.4524 67.0252 13.3379C67.0693 13.2234 67.0914 13.12 67.0914 13.0277C67.0914 12.8469 67.0312 12.7004 66.9107 12.5879C66.7902 12.4755 66.6276 12.4192 66.4228 12.4192L64.5915 12.4192L64.5915 13.7505C64.5915 13.875 64.5463 13.9825 64.4559 14.0728C64.3656 14.1632 64.2582 14.2084 64.1337 14.2084C64.0092 14.2084 63.9027 14.1632 63.8144 14.0728C63.726 13.9825 63.6819 13.875 63.6819 13.7505Z" fill="#000000" fill-rule="nonzero" opacity="1" stroke="none"/>
</g>
<g opacity="1">
<path d="M38.5065 7.32506C37.997 7.32506 37.531 7.40666 37.0836 7.56221C36.6962 7.69696 36.3075 7.85994 35.9571 8.06616C35.6576 8.2425 35.3543 8.41161 35.0381 8.59975C34.7725 8.7579 34.4676 8.90877 34.1192 9.04441C33.8191 9.16111 33.4575 9.25581 32.9927 9.31121C32.5385 9.3651 32.0742 9.58076 31.7476 9.96337C31.4199 10.3475 31.2959 10.8326 31.3326 11.2974C31.3738 11.8194 31.6106 12.2658 31.9255 12.661C31.9266 12.6623 31.9244 12.6893 31.9255 12.6906C32.872 13.865 33.8124 14.8551 34.7713 15.6847C35.7461 16.5279 36.7888 17.1662 37.8839 17.6115C38.9948 18.0634 40.1881 18.2933 41.4709 18.2933C42.7491 18.2933 43.975 18.063 45.0874 17.6115C46.185 17.1661 47.225 16.5282 48.2 15.6847C49.1596 14.8546 50.1039 13.8359 51.0459 12.661C51.3582 12.2711 51.5979 11.8149 51.6387 11.2974C51.6755 10.8315 51.557 10.348 51.2237 9.96337C50.8968 9.58613 50.4344 9.36546 49.9787 9.31121C49.519 9.25588 49.1535 9.16156 48.8522 9.04441C48.5032 8.9087 48.1728 8.75893 47.9036 8.59975C47.5858 8.41196 47.2833 8.24196 46.9846 8.06616C46.6342 7.85984 46.2752 7.69706 45.8878 7.56221C45.4404 7.40657 44.9447 7.32501 44.4353 7.32506C43.9193 7.32506 43.4415 7.40832 42.9827 7.59186C42.5909 7.74858 42.2327 7.93032 41.9155 8.15509C41.7531 8.27022 41.6326 8.37906 41.5005 8.48118C41.3638 8.37495 41.2256 8.2754 41.0559 8.15509C40.7387 7.93031 40.3805 7.74853 39.9887 7.59186C39.5285 7.40777 39.0261 7.32501 38.5065 7.32506Z" fill="#282828" fill-rule="nonzero" opacity="1" stroke="#ffffff" stroke-linecap="round" stroke-linejoin="round" stroke-width="0.6"/>
<path d="M33.1148 12.1411C33.9832 13.2186 34.8471 14.1291 35.7064 14.8724C36.5657 15.6158 37.4648 16.1784 38.4036 16.5603C39.3425 16.9423 40.3689 17.1332 41.4828 17.1332C42.5922 17.1332 43.6174 16.9423 44.5586 16.5603C45.4997 16.1784 46.3999 15.6158 47.2592 14.8724C48.1185 14.1291 48.9801 13.2186 49.844 12.1411C50.0804 11.8501 50.2088 11.575 50.2293 11.3159C50.2497 11.0567 50.1861 10.8419 50.0383 10.6714C49.8906 10.5009 49.6826 10.3997 49.4143 10.3679C48.9233 10.3088 48.4936 10.2076 48.1254 10.0644C47.7571 9.9212 47.4229 9.76094 47.1228 9.58362C46.8228 9.4063 46.5318 9.23467 46.2499 9.06872C45.968 8.90277 45.6702 8.76523 45.3565 8.65612C45.0428 8.547 44.6836 8.49244 44.279 8.49244C43.8834 8.49244 43.5265 8.55609 43.2082 8.6834C42.89 8.8107 42.6138 8.95733 42.3796 9.12328C42.1455 9.28923 41.9534 9.43472 41.8033 9.55975C41.6533 9.68478 41.5465 9.7473 41.4828 9.7473C41.4192 9.7473 41.3123 9.68478 41.1623 9.55975C41.0122 9.43472 40.8201 9.28923 40.586 9.12328C40.3518 8.95733 40.0756 8.8107 39.7574 8.6834C39.4391 8.55609 39.0799 8.49244 38.6798 8.49244C38.2752 8.49244 37.916 8.547 37.6023 8.65612C37.2886 8.76523 36.9908 8.90277 36.7089 9.06872C36.427 9.23467 36.1372 9.4063 35.8394 9.58362C35.5416 9.76094 35.2085 9.9212 34.8402 10.0644C34.472 10.2076 34.04 10.3088 33.5445 10.3679C33.2762 10.3997 33.0694 10.5009 32.9239 10.6714C32.7784 10.8419 32.7159 11.0567 32.7363 11.3159C32.7568 11.575 32.8829 11.8501 33.1148 12.1411Z" fill="#ff9a44" fill-rule="nonzero" opacity="1" stroke="none" vectornator:layerName="Curve"/>
<path d="M34.6766 11.9774C34.5584 11.9046 34.4981 11.8239 34.4958 11.7353C34.4936 11.6466 34.5265 11.5773 34.5947 11.5273C34.6629 11.4773 34.7516 11.4773 34.8607 11.5273C35.179 11.6773 35.5052 11.7785 35.8394 11.8308C36.1735 11.8831 36.5248 11.9024 36.893 11.8887C37.2613 11.8751 37.6546 11.8455 38.0729 11.8001C38.2411 11.7773 38.4093 11.7569 38.5775 11.7387C38.7458 11.7205 38.9117 11.7114 39.0754 11.7114C39.5937 11.7114 40.0052 11.7819 40.3098 11.9228C40.6144 12.0638 40.8599 12.1888 41.0463 12.2979C41.1691 12.3661 41.2589 12.4116 41.3157 12.4343C41.3725 12.4571 41.4282 12.4684 41.4828 12.4684C41.5374 12.4684 41.5931 12.4571 41.6499 12.4343C41.7067 12.4116 41.7965 12.3661 41.9193 12.2979C42.1057 12.1888 42.3501 12.0638 42.6524 11.9228C42.9548 11.7819 43.3651 11.7114 43.8834 11.7114C44.0516 11.7114 44.2187 11.7205 44.3847 11.7387C44.5506 11.7569 44.72 11.7773 44.8927 11.8001C45.3065 11.8592 45.6975 11.8944 46.0658 11.9058C46.434 11.9172 46.7853 11.8944 47.1194 11.8376C47.4536 11.7808 47.7821 11.6773 48.1049 11.5273C48.2095 11.4773 48.297 11.4773 48.3675 11.5273C48.4379 11.5773 48.4709 11.6466 48.4664 11.7353C48.4618 11.8239 48.4004 11.9046 48.2822 11.9774C47.8912 12.2184 47.4922 12.3889 47.0853 12.4889C46.6784 12.5889 46.2874 12.6457 45.9123 12.6594C45.5372 12.673 45.1985 12.6696 44.8961 12.6492C44.5938 12.6287 44.3471 12.6162 44.1562 12.6116C43.7606 12.6116 43.439 12.6537 43.1912 12.7378C42.9434 12.8219 42.7342 12.9185 42.5638 13.0277C42.3933 13.1368 42.2273 13.2322 42.0659 13.3141C41.9045 13.3959 41.7101 13.4368 41.4828 13.4368C41.2509 13.4368 41.0543 13.3959 40.8929 13.3141C40.7315 13.2322 40.5655 13.1368 40.395 13.0277C40.2245 12.9185 40.0165 12.8219 39.771 12.7378C39.5255 12.6537 39.2027 12.6116 38.8026 12.6116C38.6162 12.6162 38.3707 12.6298 38.066 12.6526C37.7614 12.6753 37.4216 12.6798 37.0465 12.6662C36.6714 12.6526 36.2815 12.5957 35.8769 12.4957C35.4722 12.3957 35.0721 12.2229 34.6766 11.9774Z" fill="#000000" fill-rule="nonzero" opacity="1" stroke="none"/>
</g>
<g opacity="1">
<path d="M17.6576 4.49669C17.0444 4.49669 16.4372 4.64049 15.9076 4.96544C15.3979 5.27805 14.9929 5.74885 14.7201 6.27794C14.4404 6.82061 14.3138 7.41247 14.3138 8.02794C14.3138 8.46453 14.3138 9.12906 14.3138 9.77794C14.0585 9.63161 13.8168 9.43407 13.5326 9.43419C13.0996 9.43419 12.6518 9.62727 12.3451 9.93419C12.0403 10.2389 11.8451 10.6859 11.8451 11.1217C11.8451 11.4482 11.8451 12.1077 11.8451 12.4342C11.8451 13.4388 12.0544 14.403 12.5013 15.2467C12.9398 16.0746 13.5872 16.7453 14.3763 17.2467C14.432 17.2821 14.5069 17.2759 14.5638 17.3092C14.2123 17.3617 13.8516 17.4589 13.5951 17.7154C13.2825 18.0281 13.095 18.4739 13.0951 18.9029C13.0951 19.3359 13.2883 19.8149 13.5951 20.1217C13.9077 20.4343 14.3534 20.5906 14.7826 20.5904C16.2187 20.5904 19.0965 20.5904 20.5326 20.5904C20.9588 20.5904 21.4055 20.4364 21.7201 20.1217C22.0248 19.817 22.2201 19.3385 22.2201 18.9029C22.2201 18.4767 22.0347 18.03 21.7201 17.7154C21.4652 17.4606 21.1041 17.3621 20.7513 17.3092C20.8076 17.2763 20.8837 17.2818 20.9388 17.2467C21.7275 16.7456 22.3439 16.0749 22.7826 15.2467C23.2294 14.403 23.4388 13.439 23.4388 12.4342C23.4388 12.1077 23.4388 11.4482 23.4388 11.1217C23.4388 10.6887 23.2769 10.241 22.9701 9.93419C22.6653 9.62947 22.2185 9.43417 21.7826 9.43419C21.5103 9.43419 21.2597 9.61004 21.0013 9.74669C21.0013 9.11064 21.0013 8.45666 21.0013 8.02794C21.0013 7.4148 20.8709 6.81969 20.5951 6.27794C20.3236 5.74478 19.9214 5.27836 19.4076 4.96544C18.8799 4.64394 18.2694 4.49674 17.6576 4.49669Z" fill="#282828" fill-rule="nonzero" opacity="1" stroke="#ffffff" stroke-linecap="round" stroke-linejoin="round" stroke-width="0.6"/>
<path d="M13.0456 12.434C13.0456 13.2746 13.2182 14.0208 13.5635 14.6726C13.9087 15.3245 14.3901 15.8466 15.0076 16.239C15.6252 16.6314 16.3435 16.8619 17.1626 16.9305L17.1626 18.4293L14.776 18.4293C14.6388 18.4293 14.523 18.4765 14.4287 18.5709C14.3343 18.6652 14.2872 18.781 14.2872 18.9182C14.2872 19.0512 14.3343 19.1648 14.4287 19.2592C14.523 19.3535 14.6388 19.4007 14.776 19.4007L20.5205 19.4007C20.6577 19.4007 20.7735 19.3535 20.8679 19.2592C20.9622 19.1648 21.0094 19.0512 21.0094 18.9182C21.0094 18.781 20.9622 18.6652 20.8679 18.5709C20.7735 18.4765 20.6577 18.4293 20.5205 18.4293L18.1339 18.4293L18.1339 16.9305C18.953 16.8619 19.6714 16.6314 20.2889 16.239C20.9065 15.8466 21.3878 15.3245 21.7331 14.6726C22.0783 14.0208 22.2509 13.2746 22.2509 12.434L22.2509 11.1282C22.2509 10.9952 22.2037 10.8816 22.1094 10.7872C22.015 10.6929 21.9014 10.6457 21.7685 10.6457C21.6312 10.6457 21.5154 10.6929 21.4211 10.7872C21.3267 10.8816 21.2796 10.9952 21.2796 11.1282L21.2796 12.3954C21.2796 13.1245 21.1295 13.7634 20.8293 14.3124C20.5291 14.8613 20.1077 15.2869 19.5652 15.5893C19.0227 15.8916 18.3848 16.0428 17.6515 16.0428C16.9182 16.0428 16.2792 15.8916 15.7345 15.5893C15.1899 15.2869 14.7675 14.8613 14.4673 14.3124C14.1671 13.7634 14.017 13.1245 14.017 12.3954L14.017 11.1282C14.017 10.9952 13.9698 10.8816 13.8755 10.7872C13.7811 10.6929 13.6653 10.6457 13.5281 10.6457C13.3951 10.6457 13.2815 10.6929 13.1872 10.7872C13.0928 10.8816 13.0456 10.9952 13.0456 11.1282L13.0456 12.434ZM17.6515 14.6597C18.076 14.6597 18.4502 14.5611 18.774 14.3638C19.0978 14.1666 19.3487 13.8932 19.5266 13.5437C19.7046 13.1942 19.7936 12.79 19.7936 12.3311L19.7936 8.02758C19.7936 7.56871 19.7046 7.16451 19.5266 6.815C19.3487 6.46549 19.0978 6.1921 18.774 5.99482C18.4502 5.79755 18.076 5.69892 17.6515 5.69892C17.2226 5.69892 16.8474 5.79755 16.5258 5.99482C16.2041 6.1921 15.9532 6.46549 15.7731 6.815C15.593 7.16451 15.5029 7.56871 15.5029 8.02758L15.5029 12.3311C15.5029 12.79 15.593 13.1942 15.7731 13.5437C15.9532 13.8932 16.2041 14.1666 16.5258 14.3638C16.8474 14.5611 17.2226 14.6597 17.6515 14.6597Z" fill="#ff9a44" fill-rule="nonzero" opacity="1" stroke="none" vectornator:layerName="Curve"/>
</g>
</g>
<g opacity="0" vectornator:layerName="Group">
<g opacity="1">
<path d="M164.846 21.0796C165.939 21.0796 166.968 20.8705 167.933 20.4522C168.897 20.0339 169.748 19.4561 170.486 18.7188C171.223 17.9816 171.801 17.1306 172.219 16.1659C172.637 15.2012 172.846 14.1724 172.846 13.0796C172.846 11.9868 172.637 10.958 172.219 9.99333C171.801 9.02862 171.223 8.17764 170.486 7.44039C169.748 6.70313 168.896 6.12536 167.929 5.70706C166.961 5.28876 165.931 5.07961 164.839 5.07961C163.746 5.07961 162.717 5.28876 161.752 5.70706C160.788 6.12536 159.938 6.70313 159.203 7.44039C158.469 8.17764 157.892 9.02862 157.474 9.99333C157.056 10.958 156.846 11.9868 156.846 13.0796C156.846 14.1724 157.056 15.2012 157.474 16.1659C157.892 17.1306 158.47 17.9816 159.207 18.7188C159.945 19.4561 160.795 20.0339 161.76 20.4522C162.725 20.8705 163.754 21.0796 164.846 21.0796Z" fill="#282828" fill-rule="nonzero" filter="url(#Filter)" stroke="#ffffff" stroke-linecap="round" stroke-linejoin="round" stroke-width="0.6" vectornator:shadowAngle="-1.56298" vectornator:shadowColor="#000000" vectornator:shadowOffset="0" vectornator:shadowOpacity="0.997748" vectornator:shadowRadius="6"/>
<g filter="url(#Filter_2)" vectornator:shadowAngle="-1.56298" vectornator:shadowColor="#000000" vectornator:shadowOffset="0" vectornator:shadowOpacity="0.6" vectornator:shadowRadius="2">
<path d="M166.415 14.8992C166.19 14.7267 166.156 14.5201 166.313 14.2796C166.548 13.9502 166.666 13.5502 166.666 13.0796C166.666 12.5776 166.551 12.1776 166.321 11.8796C166.243 11.7698 166.212 11.6574 166.231 11.5424C166.249 11.4273 166.311 11.3306 166.415 11.2522C166.504 11.1842 166.605 11.162 166.717 11.1855C166.829 11.209 166.922 11.2678 166.995 11.362C167.158 11.5816 167.284 11.843 167.376 12.1463C167.467 12.4495 167.513 12.7607 167.513 13.0796C167.513 13.409 167.469 13.724 167.38 14.0247C167.291 14.3254 167.163 14.5829 166.995 14.7973C166.922 14.8914 166.829 14.9502 166.717 14.9737C166.605 14.9973 166.504 14.9724 166.415 14.8992Z" fill="#62ddfe" fill-rule="nonzero" opacity="1" stroke="none"/>
<path d="M167.843 15.9737C167.738 15.911 167.679 15.8208 167.666 15.7031C167.653 15.5855 167.683 15.4718 167.756 15.362C167.976 15.0691 168.146 14.7214 168.266 14.3188C168.386 13.9162 168.446 13.5031 168.446 13.0796C168.446 12.6456 168.386 12.2312 168.266 11.8365C168.146 11.4417 167.976 11.0901 167.756 10.7816C167.683 10.677 167.654 10.5672 167.67 10.4522C167.686 10.3371 167.743 10.2456 167.843 10.1776C167.942 10.1097 168.046 10.0861 168.156 10.1071C168.266 10.128 168.355 10.1881 168.423 10.2874C168.705 10.6796 168.92 11.1162 169.066 11.5973C169.212 12.0783 169.286 12.5724 169.286 13.0796C169.286 13.5973 169.21 14.0953 169.058 14.5737C168.907 15.0522 168.695 15.4848 168.423 15.8718C168.355 15.9607 168.267 16.0156 168.16 16.0365C168.053 16.0574 167.947 16.0365 167.843 15.9737Z" fill="#62ddfe" fill-rule="nonzero" opacity="1" stroke="none"/>
<path d="M164.58 16.7267C164.48 16.7267 164.389 16.7057 164.305 16.6639C164.222 16.6221 164.13 16.5567 164.031 16.4678L162.274 14.7973C162.248 14.7711 162.214 14.758 162.172 14.758L160.98 14.758C160.708 14.758 160.496 14.6809 160.345 14.5267C160.193 14.3724 160.117 14.1489 160.117 13.8561L160.117 12.311C160.117 12.0182 160.193 11.7946 160.345 11.6404C160.496 11.4861 160.708 11.409 160.98 11.409L162.172 11.409C162.219 11.409 162.253 11.3986 162.274 11.3776L164.031 9.72274C164.141 9.6234 164.233 9.5515 164.309 9.50706C164.385 9.46261 164.47 9.44039 164.564 9.44039C164.705 9.44039 164.82 9.48745 164.909 9.58157C164.998 9.67568 165.043 9.79072 165.043 9.92666L165.043 16.2639C165.043 16.3946 164.999 16.5044 164.913 16.5933C164.827 16.6822 164.716 16.7267 164.58 16.7267Z" fill="#62ddfe" fill-rule="nonzero" opacity="1" stroke="none"/>
</g>
</g>
<g opacity="1">
<path d="M184.155 21.0796C185.248 21.0796 186.277 20.8705 187.242 20.4522C188.206 20.0339 189.057 19.4561 189.795 18.7188C190.532 17.9816 191.11 17.1306 191.528 16.1659C191.946 15.2012 192.155 14.1724 192.155 13.0796C192.155 11.9868 191.946 10.958 191.528 9.99333C191.11 9.02862 190.532 8.17764 189.795 7.44039C189.057 6.70313 188.205 6.12536 187.238 5.70706C186.27 5.28876 185.24 5.07961 184.148 5.07961C183.055 5.07961 182.026 5.28876 181.061 5.70706C180.097 6.12536 179.247 6.70313 178.512 7.44039C177.778 8.17764 177.201 9.02862 176.783 9.99333C176.365 10.958 176.155 11.9868 176.155 13.0796C176.155 14.1724 176.365 15.2012 176.783 16.1659C177.201 17.1306 177.779 17.9816 178.516 18.7188C179.254 19.4561 180.104 20.0339 181.069 20.4522C182.034 20.8705 183.063 21.0796 184.155 21.0796Z" fill="#282828" fill-rule="nonzero" filter="url(#Filter_3)" stroke="#ffffff" stroke-linecap="round" stroke-linejoin="round" stroke-width="0.6" vectornator:shadowAngle="-1.56298" vectornator:shadowColor="#000000" vectornator:shadowOffset="0" vectornator:shadowOpacity="1" vectornator:shadowRadius="6"/>
<g filter="url(#Filter_4)" vectornator:shadowAngle="-1.56298" vectornator:shadowColor="#000000" vectornator:shadowOffset="0" vectornator:shadowOpacity="0.6" vectornator:shadowRadius="2">
<path d="M180.595 15.9973C180.391 15.9973 180.23 15.9476 180.112 15.8482C179.995 15.7489 179.936 15.6208 179.936 15.4639C179.936 15.2339 180.027 15.0182 180.21 14.8169C180.393 14.6156 180.582 14.4129 180.775 14.209C180.874 14.1044 180.95 13.9698 181.003 13.8051C181.055 13.6404 181.093 13.4665 181.116 13.2835C181.14 13.1005 181.157 12.9254 181.167 12.758C181.188 11.8901 181.327 11.1685 181.583 10.5933C181.839 10.0182 182.263 9.62078 182.854 9.40117C182.948 9.11359 183.106 8.86784 183.328 8.66392C183.55 8.46 183.826 8.35804 184.155 8.35804C184.485 8.35804 184.761 8.46 184.983 8.66392C185.205 8.86784 185.363 9.11359 185.457 9.40117C186.048 9.62078 186.472 10.0182 186.728 10.5933C186.984 11.1685 187.12 11.8901 187.136 12.758C187.152 12.9254 187.17 13.1018 187.191 13.2874C187.212 13.4731 187.248 13.6469 187.301 13.809C187.353 13.9711 187.431 14.1044 187.536 14.209C187.735 14.4077 187.924 14.609 188.104 14.8129C188.285 15.0169 188.375 15.2339 188.375 15.4639C188.375 15.6208 188.316 15.7489 188.199 15.8482C188.081 15.9476 187.918 15.9973 187.708 15.9973L180.595 15.9973Z" fill="#62ddfe" fill-rule="nonzero" opacity="1" stroke="none"/>
<path d="M184.155 17.8718C183.774 17.8718 183.457 17.7528 183.206 17.5149C182.955 17.277 182.817 16.9959 182.791 16.6718L185.52 16.6718C185.494 16.9959 185.355 17.277 185.104 17.5149C184.854 17.7528 184.537 17.8718 184.155 17.8718Z" fill="#62ddfe" fill-rule="nonzero" opacity="1" stroke="none"/>
</g>
</g>
<g opacity="1">
<path d="M203.413 21.0796C204.505 21.0796 205.534 20.8705 206.499 20.4522C207.464 20.0339 208.315 19.4561 209.052 18.7188C209.789 17.9816 210.367 17.1306 210.785 16.1659C211.203 15.2012 211.413 14.1724 211.413 13.0796C211.413 11.9868 211.203 10.958 210.785 9.99333C210.367 9.02862 209.789 8.17764 209.052 7.44039C208.315 6.70313 207.462 6.12536 206.495 5.70706C205.528 5.28876 204.498 5.07961 203.405 5.07961C202.312 5.07961 201.283 5.28876 200.318 5.70706C199.354 6.12536 198.504 6.70313 197.769 7.44039C197.035 8.17764 196.458 9.02862 196.04 9.99333C195.622 10.958 195.413 11.9868 195.413 13.0796C195.413 14.1724 195.622 15.2012 196.04 16.1659C196.458 17.1306 197.036 17.9816 197.773 18.7188C198.511 19.4561 199.362 20.0339 200.326 20.4522C201.291 20.8705 202.32 21.0796 203.413 21.0796Z" fill="#282828" fill-rule="nonzero" filter="url(#Filter_5)" stroke="#ffffff" stroke-linecap="round" stroke-linejoin="round" stroke-width="0.6" vectornator:shadowAngle="-1.56298" vectornator:shadowColor="#000000" vectornator:shadowOffset="0" vectornator:shadowOpacity="1" vectornator:shadowRadius="6"/>
<g filter="url(#Filter_6)" vectornator:shadowAngle="-1.56298" vectornator:shadowColor="#000000" vectornator:shadowOffset="0" vectornator:shadowOpacity="0.6" vectornator:shadowRadius="2">
<path d="M199.303 14.2718C199.167 14.2718 199.052 14.2247 198.958 14.1306C198.864 14.0365 198.817 13.9214 198.817 13.7855L198.817 12.358C198.817 12.2273 198.864 12.1149 198.958 12.0208C199.052 11.9267 199.167 11.8796 199.303 11.8796C199.439 11.8796 199.554 11.9267 199.648 12.0208C199.742 12.1149 199.789 12.2273 199.789 12.358L199.789 13.7855C199.789 13.9214 199.742 14.0365 199.648 14.1306C199.554 14.2247 199.439 14.2718 199.303 14.2718Z" fill="#62ddfe" fill-rule="nonzero" opacity="1" stroke="none"/>
<path d="M200.942 16.2169C200.806 16.2169 200.691 16.1698 200.597 16.0757C200.503 15.9816 200.456 15.8665 200.456 15.7306L200.456 10.4129C200.456 10.2822 200.503 10.1698 200.597 10.0757C200.691 9.98157 200.806 9.93451 200.942 9.93451C201.083 9.93451 201.201 9.98157 201.295 10.0757C201.389 10.1698 201.436 10.2822 201.436 10.4129L201.436 15.7306C201.436 15.8665 201.389 15.9816 201.295 16.0757C201.201 16.1698 201.083 16.2169 200.942 16.2169Z" fill="#62ddfe" fill-rule="nonzero" opacity="1" stroke="none"/>
<path d="M202.589 18.3816C202.448 18.3816 202.332 18.3345 202.24 18.2404C202.149 18.1463 202.103 18.026 202.103 17.8796L202.103 8.27961C202.103 8.1332 202.15 8.01294 202.244 7.91882C202.338 7.8247 202.453 7.77764 202.589 7.77764C202.725 7.77764 202.84 7.8247 202.934 7.91882C203.028 8.01294 203.075 8.1332 203.075 8.27961L203.075 17.8796C203.075 18.0208 203.028 18.1397 202.934 18.2365C202.84 18.3332 202.725 18.3816 202.589 18.3816Z" fill="#62ddfe" fill-rule="nonzero" opacity="1" stroke="none"/>
<path d="M204.22 15.5737C204.084 15.5737 203.971 15.5267 203.879 15.4325C203.788 15.3384 203.742 15.2234 203.742 15.0874L203.742 11.0639C203.742 10.928 203.788 10.8129 203.879 10.7188C203.971 10.6247 204.084 10.5776 204.22 10.5776C204.362 10.5776 204.479 10.6247 204.573 10.7188C204.667 10.8129 204.715 10.928 204.715 11.0639L204.715 15.0874C204.715 15.2234 204.667 15.3384 204.573 15.4325C204.479 15.5267 204.362 15.5737 204.22 15.5737Z" fill="#62ddfe" fill-rule="nonzero" opacity="1" stroke="none"/>
<path d="M205.867 17.2443C205.726 17.2443 205.609 17.1973 205.515 17.1031C205.42 17.009 205.373 16.894 205.373 16.758L205.373 9.39333C205.373 9.25738 205.42 9.14235 205.515 9.04823C205.609 8.95411 205.726 8.90706 205.867 8.90706C206.003 8.90706 206.118 8.95411 206.213 9.04823C206.307 9.14235 206.354 9.25738 206.354 9.39333L206.354 16.758C206.354 16.894 206.307 17.009 206.213 17.1031C206.118 17.1973 206.003 17.2443 205.867 17.2443Z" fill="#62ddfe" fill-rule="nonzero" opacity="1" stroke="none"/>
<path d="M207.515 14.6718C207.373 14.6718 207.256 14.626 207.162 14.5345C207.067 14.443 207.02 14.3293 207.02 14.1933L207.02 11.958C207.02 11.8221 207.067 11.7084 207.162 11.6169C207.256 11.5254 207.373 11.4796 207.515 11.4796C207.651 11.4796 207.764 11.5254 207.856 11.6169C207.947 11.7084 207.993 11.8221 207.993 11.958L207.993 14.1933C207.993 14.3293 207.947 14.443 207.856 14.5345C207.764 14.626 207.651 14.6718 207.515 14.6718Z" fill="#62ddfe" fill-rule="nonzero" opacity="1" stroke="none" vectornator:layerName="Curve"/>
</g>
</g>
</g>
</g>
</g>
</svg>
