<?xml version="1.0" encoding="UTF-8" standalone="no"?>
<!DOCTYPE svg PUBLIC "-//W3C//DTD SVG 1.1//EN" "http://www.w3.org/Graphics/SVG/1.1/DTD/svg11.dtd">
<!-- Created with Vectornator (http://vectornator.io/) -->
<svg height="100%" stroke-miterlimit="10" style="fill-rule:nonzero;clip-rule:evenodd;stroke-linecap:round;stroke-linejoin:round;" version="1.1" viewBox="0 0 32.0379 32.0379" width="100%" xml:space="preserve" xmlns="http://www.w3.org/2000/svg" xmlns:vectornator="http://vectornator.io" xmlns:xlink="http://www.w3.org/1999/xlink">
<defs/>
<g id="Layer-1" vectornator:layerName="Layer 1">
<g opacity="1" vectornator:layerName="Soundscapes_On">
<path d="M9.76978 4.10138C9.55356 4.03163 9.29832 4.04603 9.08894 4.15001C8.8797 4.25464 8.76946 4.41217 8.69989 4.63633C8.63014 4.85255 8.64388 5.06075 8.74852 5.26854C8.85315 5.47779 9.01152 5.62873 9.23484 5.70622L18.4748 8.72138L6.99779 8.72138C5.90273 8.72138 5.06549 9.0076 4.51758 9.54812C3.97005 10.0887 3.69079 10.8994 3.69084 11.9797L3.69084 24.7212C3.69084 25.8023 3.97003 26.6125 4.51758 27.1527C5.0651 27.6933 5.9028 27.9802 6.99779 27.9795L25.0887 27.9795C26.1908 27.9795 26.9762 27.6933 27.5203 27.1527C28.0643 26.6122 28.3467 25.8009 28.347 24.7212L28.347 11.9797C28.347 10.8986 28.0644 10.0889 27.5203 9.54812C26.9763 9.00756 26.191 8.71981 25.0887 8.72138L23.8729 8.72138L9.76978 4.10138Z" fill="#282828" fill-rule="nonzero" opacity="1" stroke="#ffffff" stroke-linecap="round" stroke-linejoin="round" stroke-width="0.953094"/>
<path d="M8.07006 10.6617L23.9968 10.6617C25.3377 10.6617 26.4248 11.4757 26.4248 12.4799L26.4248 24.407C26.4248 25.4112 25.3377 26.2253 23.9968 26.2253L8.07006 26.2253C6.72911 26.2253 5.64205 25.4112 5.64205 24.407L5.64205 12.4799C5.64205 11.4757 6.72911 10.6617 8.07006 10.6617Z" fill="#ffac00" fill-rule="nonzero" opacity="1" stroke="#000000" stroke-linecap="round" stroke-linejoin="round" stroke-width="1.36909"/>
<g opacity="1">
<path d="M22.902 14.1712C23.3498 14.178 23.7624 14.3215 24.0847 14.6443C24.407 14.9666 24.5577 15.332 24.5577 15.7797C24.5577 16.2275 24.4069 16.6472 24.0847 16.9623C23.7624 17.2778 23.3498 17.4286 22.902 17.4354C22.4474 17.4422 22.0891 17.284 21.7667 16.9623C21.4444 16.64 21.2936 16.2269 21.2936 15.7797C21.2936 15.3319 21.4444 14.9724 21.7667 14.6443C22.0889 14.3152 22.4474 14.1651 22.902 14.1712Z" fill="#ffffff" fill-rule="nonzero" opacity="1" stroke="#000000" stroke-linecap="round" stroke-linejoin="round" stroke-width="0.953094"/>
<path d="M22.902 18.9019C23.3498 18.9019 23.7624 19.1034 24.0847 19.4222C24.407 19.7411 24.5577 20.1023 24.5577 20.5576C24.5577 21.0122 24.4069 21.418 24.0847 21.7403C23.7624 22.0625 23.3498 22.2133 22.902 22.2133C22.4474 22.2133 22.0891 22.0625 21.7667 21.7403C21.4444 21.418 21.2936 21.0122 21.2936 20.5576C21.2936 20.103 21.4444 19.7413 21.7667 19.4222C22.0889 19.1034 22.4474 18.9023 22.902 18.9019Z" fill="#ffffff" fill-rule="nonzero" opacity="1" stroke="#000000" stroke-linecap="round" stroke-linejoin="round" stroke-width="0.953094" vectornator:layerName="Curve"/>
</g>
<g opacity="1" vectornator:layerName="Group">
<path d="M13.5827 12.279C13.793 12.279 13.957 12.3628 14.103 12.5155C14.2489 12.6682 14.2924 12.8726 14.2923 13.0832C14.2923 13.3003 14.249 13.4957 14.103 13.6509C13.9572 13.8069 13.7928 13.886 13.5827 13.8874C13.3655 13.8874 13.1641 13.8068 13.015 13.6509C12.8657 13.4948 12.7783 13.3017 12.7785 13.0832C12.7785 12.8729 12.8657 12.6669 13.015 12.5155C13.1643 12.3629 13.3657 12.2791 13.5827 12.279Z" fill="#000000" fill-rule="nonzero" opacity="1" stroke="none"/>
<path d="M10.9335 13.0359C11.1438 13.0359 11.3584 13.1197 11.5012 13.2724C11.6437 13.4251 11.6907 13.6226 11.6904 13.8401C11.6904 14.0504 11.6436 14.2093 11.5012 14.3605C11.3587 14.5131 11.1435 14.5969 10.9335 14.597C10.7164 14.597 10.5589 14.5132 10.4131 14.3605C10.2673 14.2078 10.1765 14.0504 10.1766 13.8401C10.1766 13.623 10.2672 13.4246 10.4131 13.2724C10.559 13.1198 10.7166 13.036 10.9335 13.0359Z" fill="#000000" fill-rule="nonzero" opacity="1" stroke="none"/>
<path d="M16.1372 13.0359C16.3611 13.0359 16.559 13.1197 16.7049 13.2724C16.8508 13.4251 16.9416 13.6226 16.9414 13.8401C16.9414 14.0504 16.8508 14.2093 16.7049 14.3605C16.559 14.5131 16.3609 14.5969 16.1372 14.597C15.9337 14.597 15.7626 14.5132 15.6168 14.3605C15.471 14.2078 15.4274 14.0504 15.4276 13.8401C15.4276 13.623 15.471 13.4246 15.6168 13.2724C15.7627 13.1198 15.9338 13.036 16.1372 13.0359Z" fill="#000000" fill-rule="nonzero" opacity="1" stroke="none"/>
<path d="M8.99395 14.9281C9.19749 14.9281 9.3686 15.0087 9.51432 15.1647C9.66019 15.3207 9.75098 15.5075 9.75085 15.7324C9.75085 15.9359 9.66024 16.1029 9.51432 16.2527C9.36844 16.402 9.19733 16.4892 8.99395 16.4893C8.78362 16.4893 8.62982 16.402 8.47358 16.2527C8.31753 16.1035 8.23701 15.9359 8.23705 15.7324C8.23705 15.5085 8.31755 15.3206 8.47358 15.1647C8.62963 15.0086 8.78363 14.9295 8.99395 14.9281Z" fill="#000000" fill-rule="nonzero" opacity="1" stroke="none"/>
<path d="M18.1241 14.9281C18.3344 14.9281 18.4915 15.0087 18.6444 15.1647C18.7971 15.3207 18.8806 15.5075 18.881 15.7324C18.881 15.9359 18.7971 16.1029 18.6444 16.2527C18.4918 16.402 18.3346 16.4892 18.1241 16.4893C17.9137 16.4893 17.7025 16.402 17.5564 16.2527C17.4105 16.1035 17.367 15.9359 17.3672 15.7324C17.3672 15.5085 17.4105 15.3206 17.5564 15.1647C17.7023 15.0086 17.9139 14.9295 18.1241 14.9281Z" fill="#000000" fill-rule="nonzero" opacity="1" stroke="none"/>
<path d="M13.5827 14.9755C13.793 14.9755 13.957 15.056 14.103 15.212C14.2489 15.368 14.2924 15.5612 14.2923 15.7797C14.2923 15.99 14.249 16.1521 14.103 16.3C13.9572 16.4493 13.7928 16.5365 13.5827 16.5366C13.3655 16.5366 13.1641 16.4491 13.015 16.3C12.8657 16.1508 12.7783 15.9904 12.7785 15.7797C12.7785 15.5625 12.8657 15.3671 13.015 15.212C13.1643 15.0559 13.3657 14.9768 13.5827 14.9755Z" fill="#000000" fill-rule="nonzero" opacity="1" stroke="none"/>
<path d="M11.1227 16.0635C11.3331 16.0635 11.4867 16.1 11.6431 16.2527C11.7992 16.4054 11.8797 16.6098 11.8796 16.8204C11.8796 17.0239 11.7991 17.1875 11.6431 17.3408C11.4871 17.4934 11.333 17.5772 11.1227 17.5773C10.9124 17.5773 10.7011 17.4935 10.5551 17.3408C10.4092 17.1881 10.3657 17.0238 10.3658 16.8204C10.3658 16.6101 10.4091 16.4041 10.5551 16.2527C10.7009 16.1001 10.9126 16.0636 11.1227 16.0635Z" fill="#000000" fill-rule="nonzero" opacity="1" stroke="none"/>
<path d="M15.9953 16.0635C16.2056 16.0635 16.3696 16.1 16.5157 16.2527C16.6615 16.4054 16.7523 16.6098 16.7522 16.8204C16.7522 17.0239 16.6616 17.1875 16.5157 17.3408C16.3698 17.4934 16.2054 17.5772 15.9953 17.5773C15.785 17.5773 15.5806 17.4935 15.4276 17.3408C15.275 17.1881 15.2387 17.0238 15.2384 16.8204C15.2384 16.6101 15.275 16.4041 15.4276 16.2527C15.5803 16.1001 15.7848 16.0636 15.9953 16.0635Z" fill="#000000" fill-rule="nonzero" opacity="1" stroke="none"/>
<path d="M8.33166 17.4827C8.54199 17.4827 8.74993 17.5228 8.89934 17.6719C9.0486 17.8212 9.08875 18.0289 9.08856 18.2396C9.08856 18.4499 9.04852 18.6123 8.89934 18.76C8.75007 18.9092 8.54182 18.9964 8.33166 18.9965C8.12133 18.9965 7.96086 18.909 7.81129 18.76C7.66202 18.6107 7.57462 18.4501 7.57476 18.2396C7.57476 18.0293 7.66204 17.8198 7.81129 17.6719C7.96056 17.5226 8.12133 17.4828 8.33166 17.4827Z" fill="#000000" fill-rule="nonzero" opacity="1" stroke="none"/>
<path d="M18.7864 17.4827C18.9899 17.4827 19.1577 17.5228 19.3067 17.6719C19.456 17.8212 19.5434 18.0289 19.5433 18.2396C19.5433 18.4499 19.456 18.6123 19.3067 18.76C19.1575 18.9092 18.9897 18.9964 18.7864 18.9965C18.576 18.9965 18.3683 18.909 18.2187 18.76C18.0694 18.6107 18.0293 18.4501 18.0295 18.2396C18.0295 18.0293 18.0694 17.8198 18.2187 17.6719C18.368 17.5226 18.576 17.4828 18.7864 17.4827Z" fill="#000000" fill-rule="nonzero" opacity="1" stroke="none"/>
<path d="M13.5827 17.53C13.793 17.53 13.957 17.5699 14.103 17.7192C14.2489 17.8685 14.2924 18.0764 14.2923 18.2869C14.2923 18.4972 14.249 18.6596 14.103 18.8073C13.9572 18.9565 13.7928 19.0435 13.5827 19.0438C13.3655 19.0438 13.1641 18.9566 13.015 18.8073C12.8657 18.658 12.7783 18.4974 12.7785 18.2869C12.7785 18.0766 12.8657 17.8669 13.015 17.7192C13.1643 17.57 13.3657 17.5303 13.5827 17.53Z" fill="#000000" fill-rule="nonzero" opacity="1" stroke="none"/>
<path d="M11.1227 18.9492C11.3331 18.9492 11.4867 19.033 11.6431 19.1857C11.7992 19.3384 11.8797 19.5362 11.8796 19.7534C11.8796 19.9637 11.7991 20.1261 11.6431 20.2738C11.4871 20.423 11.333 20.5103 11.1227 20.5103C10.9124 20.5103 10.7011 20.423 10.5551 20.2738C10.4092 20.1245 10.3657 19.9639 10.3658 19.7534C10.3658 19.5363 10.4091 19.3377 10.5551 19.1857C10.7009 19.0331 10.9126 18.9493 11.1227 18.9492Z" fill="#000000" fill-rule="nonzero" opacity="1" stroke="none"/>
<path d="M15.9953 18.9492C16.2056 18.9492 16.3696 19.033 16.5157 19.1857C16.6615 19.3384 16.7523 19.5362 16.7522 19.7534C16.7522 19.9637 16.6616 20.1261 16.5157 20.2738C16.3698 20.423 16.2054 20.5103 15.9953 20.5103C15.785 20.5103 15.5806 20.423 15.4276 20.2738C15.275 20.1245 15.2387 19.9639 15.2384 19.7534C15.2384 19.5363 15.275 19.3377 15.4276 19.1857C15.5803 19.0331 15.7848 18.9493 15.9953 18.9492Z" fill="#000000" fill-rule="nonzero" opacity="1" stroke="none"/>
<path d="M8.99395 19.9426C9.19749 19.9426 9.3686 20.0301 9.51432 20.1791C9.66019 20.3284 9.75098 20.5361 9.75085 20.7468C9.75085 20.9639 9.66024 21.112 9.51432 21.2672C9.36844 21.4232 9.19733 21.5023 8.99395 21.5037C8.78362 21.5037 8.62982 21.4232 8.47358 21.2672C8.31753 21.1111 8.23701 20.9653 8.23705 20.7468C8.23705 20.5365 8.31755 20.3271 8.47358 20.1791C8.62963 20.0299 8.78363 19.9427 8.99395 19.9426Z" fill="#000000" fill-rule="nonzero" opacity="1" stroke="none"/>
<path d="M18.1241 19.9426C18.3344 19.9426 18.4915 20.0301 18.6444 20.1791C18.7971 20.3284 18.8806 20.5361 18.881 20.7468C18.881 20.9639 18.7971 21.112 18.6444 21.2672C18.4918 21.4232 18.3346 21.5023 18.1241 21.5037C17.9137 21.5037 17.7025 21.4232 17.5564 21.2672C17.4105 21.1111 17.367 20.9653 17.3672 20.7468C17.3672 20.5365 17.4105 20.3271 17.5564 20.1791C17.7023 20.0299 17.9139 19.9427 18.1241 19.9426Z" fill="#000000" fill-rule="nonzero" opacity="1" stroke="none" vectornator:layerName="Curve"/>
<path d="M13.5827 20.0372C13.793 20.0372 13.957 20.0772 14.103 20.2265C14.2489 20.3757 14.2924 20.5834 14.2923 20.7941C14.2923 21.0112 14.249 21.2066 14.103 21.3618C13.9572 21.5179 13.7928 21.5496 13.5827 21.551C13.3655 21.551 13.1641 21.5178 13.015 21.3618C12.8657 21.2058 12.7783 21.0126 12.7785 20.7941C12.7785 20.5838 12.8657 20.3744 13.015 20.2265C13.1643 20.0772 13.3657 20.0372 13.5827 20.0372Z" fill="#000000" fill-rule="nonzero" opacity="1" stroke="none"/>
<path d="M10.9335 21.8822C11.1438 21.8822 11.3584 21.9662 11.5012 22.1187C11.6437 22.2714 11.6907 22.4758 11.6904 22.6864C11.6904 22.9035 11.6436 23.0548 11.5012 23.2068C11.3587 23.3594 11.1435 23.443 10.9335 23.4433C10.7164 23.4433 10.5589 23.3597 10.4131 23.2068C10.2673 23.0541 10.1765 22.9036 10.1766 22.6864C10.1766 22.4761 10.2672 22.2701 10.4131 22.1187C10.559 21.9661 10.7166 21.8821 10.9335 21.8822Z" fill="#000000" fill-rule="nonzero" opacity="1" stroke="none"/>
<path d="M16.1372 21.8822C16.3611 21.8822 16.559 21.9662 16.7049 22.1187C16.8508 22.2714 16.9416 22.4758 16.9414 22.6864C16.9414 22.9035 16.8508 23.0548 16.7049 23.2068C16.559 23.3594 16.3609 23.443 16.1372 23.4433C15.9337 23.4433 15.7626 23.3597 15.6168 23.2068C15.471 23.0541 15.4274 22.9036 15.4276 22.6864C15.4276 22.4761 15.471 22.2701 15.6168 22.1187C15.7627 21.9661 15.9338 21.8821 16.1372 21.8822Z" fill="#000000" fill-rule="nonzero" opacity="1" stroke="none" vectornator:layerName="Curve"/>
<path d="M13.5827 22.6864C13.793 22.6864 13.957 22.7668 14.103 22.9229C14.2489 23.079 14.2924 23.2721 14.2923 23.4906C14.2923 23.7009 14.249 23.8596 14.103 24.011C13.9572 24.1636 13.7928 24.2473 13.5827 24.2475C13.3655 24.2475 13.1641 24.1637 13.015 24.011C12.8657 23.8583 12.7783 23.7012 12.7785 23.4906C12.7785 23.2735 12.8657 23.0781 13.015 22.9229C13.1643 22.7669 13.3657 22.6872 13.5827 22.6864Z" fill="#000000" fill-rule="nonzero" opacity="1" stroke="none"/>
</g>
</g>
</g>
</svg>
