<?xml version="1.0" encoding="UTF-8" standalone="no"?>
<!DOCTYPE svg PUBLIC "-//W3C//DTD SVG 1.1//EN" "http://www.w3.org/Graphics/SVG/1.1/DTD/svg11.dtd">
<!-- Created with Vectornator (http://vectornator.io/) -->
<svg height="100%" stroke-miterlimit="10" style="fill-rule:nonzero;clip-rule:evenodd;stroke-linecap:round;stroke-linejoin:round;" version="1.1" viewBox="0 0 32.0379 32.0379" width="100%" xml:space="preserve" xmlns="http://www.w3.org/2000/svg" xmlns:vectornator="http://vectornator.io" xmlns:xlink="http://www.w3.org/1999/xlink">
<defs/>
<g id="Layer-1" vectornator:layerName="Layer 1">
<g opacity="1">
<path d="M11.7431 9.14831C11.0119 9.14831 10.3431 9.26542 9.70101 9.48866C9.14504 9.68204 8.5873 9.91595 8.08434 10.2119C7.65445 10.465 7.2193 10.7077 6.76548 10.9777C6.38428 11.2047 5.94664 11.4212 5.44662 11.6159C5.01596 11.7833 4.49704 11.9193 3.82994 11.9988C3.17808 12.0761 2.51172 12.3856 2.0431 12.9347C1.57272 13.4859 1.39482 14.1822 1.44748 14.8492C1.50663 15.5984 1.84647 16.2391 2.29836 16.8062C2.29986 16.8081 2.29682 16.8469 2.29836 16.8488C3.65667 18.5342 5.00642 19.9551 6.38258 21.1457C7.78147 22.3559 9.278 23.272 10.8497 23.9111C12.444 24.5596 14.1566 24.8895 15.9975 24.8896C17.8321 24.8896 19.5914 24.559 21.1879 23.9111C22.7631 23.2718 24.2556 22.3563 25.655 21.1457C27.0321 19.9544 28.3873 18.4924 29.7392 16.8062C30.1875 16.2467 30.5315 15.5919 30.5901 14.8492C30.6429 14.1807 30.4728 13.4867 29.9945 12.9347C29.5253 12.3933 28.8617 12.0766 28.2076 11.9988C27.5479 11.9193 27.0233 11.784 26.591 11.6159C26.0901 11.4211 25.6159 11.2061 25.2296 10.9777C24.7735 10.7082 24.3392 10.4642 23.9107 10.2119C23.4077 9.91581 22.8925 9.68219 22.3366 9.48866C21.6944 9.2653 20.9831 9.14824 20.2519 9.14831C19.5114 9.14831 18.8257 9.2678 18.1673 9.53121C17.6049 9.75613 17.0908 10.017 16.6357 10.3395C16.4025 10.5048 16.2297 10.661 16.0401 10.8075C15.8438 10.6551 15.6455 10.5122 15.4019 10.3395C14.9467 10.0169 14.4326 9.75606 13.8703 9.53121C13.2098 9.26701 12.4889 9.14824 11.7431 9.14831Z" fill="#282828" fill-rule="nonzero" opacity="1" stroke="#ffffff" stroke-linecap="round" stroke-linejoin="round" stroke-width="0.861098"/>
<path d="M4.00522 16.0601C5.25151 17.6065 6.49128 18.9132 7.72452 19.98C8.95776 21.0469 10.2481 21.8544 11.5955 22.4025C12.943 22.9506 14.416 23.2246 16.0146 23.2246C17.6068 23.2246 19.0782 22.9506 20.4289 22.4025C21.7796 21.8544 23.0715 21.0469 24.3048 19.98C25.538 18.9132 26.7745 17.6065 28.0143 16.0601C28.3536 15.6425 28.5379 15.2477 28.5673 14.8758C28.5966 14.5038 28.5053 14.1955 28.2932 13.9508C28.0812 13.7061 27.7826 13.561 27.3977 13.5153C26.693 13.4305 26.0763 13.2853 25.5478 13.0797C25.0193 12.8742 24.5397 12.6442 24.109 12.3897C23.6784 12.1352 23.2608 11.8889 22.8562 11.6507C22.4516 11.4126 22.0243 11.2152 21.574 11.0586C21.1238 10.902 20.6083 10.8237 20.0276 10.8237C19.4599 10.8237 18.9477 10.915 18.4909 11.0977C18.0342 11.2804 17.6378 11.4909 17.3017 11.729C16.9657 11.9672 16.69 12.176 16.4747 12.3555C16.2593 12.5349 16.106 12.6246 16.0146 12.6246C15.9233 12.6246 15.77 12.5349 15.5546 12.3555C15.3393 12.176 15.0636 11.9672 14.7276 11.729C14.3915 11.4909 13.9951 11.2804 13.5384 11.0977C13.0816 10.915 12.5661 10.8237 11.9919 10.8237C11.4112 10.8237 10.8957 10.902 10.4455 11.0586C9.99525 11.2152 9.56786 11.4126 9.1633 11.6507C8.75874 11.8889 8.34277 12.1352 7.91538 12.3897C7.48798 12.6442 7.01002 12.8742 6.48149 13.0797C5.95296 13.2853 5.33307 13.4305 4.62184 13.5153C4.23686 13.561 3.93997 13.7061 3.73116 13.9508C3.52236 14.1955 3.43264 14.5038 3.462 14.8758C3.49137 15.2477 3.67244 15.6425 4.00522 16.0601Z" fill="#ffac00" fill-rule="nonzero" opacity="1" stroke="#000000" stroke-linecap="round" stroke-linejoin="round" stroke-width="2.06368" vectornator:layerName="Curve"/>
<path d="M6.24658 15.8252C6.07693 15.7208 5.99047 15.6049 5.98721 15.4777C5.98395 15.3505 6.03126 15.251 6.12913 15.1792C6.22701 15.1074 6.35425 15.1074 6.51085 15.1792C6.96761 15.3945 7.43578 15.5397 7.91538 15.6147C8.39497 15.6898 8.89903 15.7175 9.42757 15.6979C9.9561 15.6784 10.5205 15.6359 11.1208 15.5707C11.3623 15.5381 11.6037 15.5087 11.8451 15.4826C12.0865 15.4565 12.3247 15.4435 12.5596 15.4435C13.3035 15.4435 13.894 15.5446 14.3312 15.7469C14.7684 15.9491 15.1207 16.1286 15.3882 16.2852C15.5644 16.3831 15.6933 16.4483 15.7748 16.4809C15.8564 16.5136 15.9363 16.5299 16.0146 16.5299C16.0929 16.5299 16.1729 16.5136 16.2544 16.4809C16.336 16.4483 16.4649 16.3831 16.6411 16.2852C16.9086 16.1286 17.2593 15.9491 17.6932 15.7469C18.1271 15.5446 18.716 15.4435 19.4599 15.4435C19.7013 15.4435 19.9411 15.4565 20.1793 15.4826C20.4174 15.5087 20.6605 15.5381 20.9085 15.5707C21.5022 15.6555 22.0634 15.7061 22.5919 15.7224C23.1205 15.7387 23.6245 15.7061 24.1041 15.6245C24.5837 15.543 25.0552 15.3945 25.5184 15.1792C25.6685 15.1074 25.7941 15.1074 25.8953 15.1792C25.9964 15.251 26.0437 15.3505 26.0372 15.4777C26.0307 15.6049 25.9426 15.7208 25.7729 15.8252C25.2118 16.171 24.6392 16.4157 24.0552 16.5592C23.4712 16.7028 22.91 16.7844 22.3717 16.8039C21.8334 16.8235 21.3473 16.8186 20.9134 16.7893C20.4794 16.7599 20.1255 16.7419 19.8514 16.7354C19.2837 16.7354 18.8221 16.7958 18.4664 16.9165C18.1108 17.0372 17.8107 17.1759 17.566 17.3325C17.3213 17.4891 17.0831 17.6261 16.8515 17.7435C16.6198 17.861 16.3409 17.9197 16.0146 17.9197C15.6819 17.9197 15.3997 17.861 15.168 17.7435C14.9364 17.6261 14.6982 17.4891 14.4535 17.3325C14.2088 17.1759 13.9103 17.0372 13.5579 16.9165C13.2056 16.7958 12.7423 16.7354 12.1681 16.7354C11.9006 16.7419 11.5482 16.7615 11.111 16.7941C10.6739 16.8268 10.1861 16.8333 9.64779 16.8137C9.10947 16.7941 8.54994 16.7126 7.96921 16.569C7.38848 16.4255 6.81427 16.1775 6.24658 15.8252Z" fill="#000000" fill-rule="nonzero" opacity="1" stroke="none"/>
</g>
</g>
</svg>
