<?xml version="1.0" encoding="UTF-8" standalone="no"?>
<!DOCTYPE svg PUBLIC "-//W3C//DTD SVG 1.1//EN" "http://www.w3.org/Graphics/SVG/1.1/DTD/svg11.dtd">
<!-- Created with Vectornator (http://vectornator.io/) -->
<svg height="100%" stroke-miterlimit="10" style="fill-rule:nonzero;clip-rule:evenodd;stroke-linecap:round;stroke-linejoin:round;" version="1.1" viewBox="0 0 32.0379 32.0379" width="100%" xml:space="preserve" xmlns="http://www.w3.org/2000/svg" xmlns:vectornator="http://vectornator.io" xmlns:xlink="http://www.w3.org/1999/xlink">
<defs/>
<g id="Layer-1" vectornator:layerName="Layer 1">
<g opacity="1">
<path d="M16.1457 4.14997C14.4213 4.14997 12.8049 4.50817 11.415 5.2904C10.0444 6.06186 8.92833 7.16357 8.16261 8.54275C7.38619 9.94111 7.02219 11.5386 7.02217 13.2734C7.02217 15.4544 7.02217 19.8357 7.02217 22.0168C7.02217 23.1089 7.24993 24.1447 7.74023 25.0579C8.2217 25.9546 8.92319 26.6728 9.8099 27.1699C10.7096 27.6742 11.7322 27.888 12.8088 27.8879C14.0059 27.8879 15.1588 27.6624 16.1457 27.0854C17.124 26.5132 17.8966 25.6592 18.4688 24.6356C18.6881 24.2432 19.1364 23.465 19.3558 23.0727C19.3601 23.0651 19.3516 23.0381 19.3558 23.0305C19.651 22.4797 19.9638 22.0151 20.285 21.6366C20.6555 21.1999 21.0541 20.8135 21.4254 20.454C21.849 20.0438 22.2617 19.6378 22.6504 19.2291C23.0883 18.7682 23.4476 18.2421 23.7908 17.7085C24.1717 17.116 24.4711 16.4793 24.6778 15.7655C24.9002 14.9975 25.0157 14.1428 25.0157 13.2312C25.0157 11.5102 24.6657 9.93224 23.9175 8.54275C23.1782 7.1697 22.0942 6.06325 20.7496 5.2904C19.3874 4.50743 17.8364 4.14993 16.1457 4.14997Z" fill="#282828" fill-rule="nonzero" opacity="1" stroke="#ffffff" stroke-linecap="round" stroke-linejoin="round" stroke-width="0.97087"/>
<path d="M8.8893 21.7197C8.8893 22.5735 9.05791 23.3145 9.39513 23.9425C9.73236 24.5706 10.2072 25.0563 10.8198 25.3997C11.4324 25.7431 12.1532 25.9148 12.9824 25.9148C13.9167 25.9148 14.7303 25.7122 15.4233 25.3069C16.1163 24.9016 16.6825 24.306 17.1218 23.5202L17.9571 22.0259C18.2789 21.4258 18.63 20.9014 19.0106 20.4528C19.3911 20.0042 19.7763 19.5911 20.1661 19.2137C20.5559 18.8363 20.9287 18.4604 21.2845 18.086C21.6403 17.7117 21.9574 17.3079 22.2358 16.8748C22.5143 16.4417 22.7355 15.9421 22.8994 15.3759C23.0634 14.8097 23.1454 14.143 23.1454 13.3758C23.1454 11.9279 22.853 10.661 22.2683 9.57508C21.6836 8.48917 20.8637 7.64302 19.8088 7.03664C18.7538 6.43026 17.524 6.12708 16.1194 6.12708C14.6777 6.12708 13.4155 6.43181 12.3327 7.04128C11.2498 7.65076 10.4052 8.50154 9.79887 9.59364C9.19249 10.6857 8.8893 11.9588 8.8893 13.4129L8.8893 21.7197Z" fill="#ffac00" fill-rule="nonzero" opacity="1" stroke="#000000" stroke-linecap="round" stroke-linejoin="round" stroke-width="2.23608"/>
<path d="M11.1534 17.795L11.1534 12.931C11.1534 12.0212 11.3548 11.2219 11.7577 10.5331C12.1606 9.84429 12.7341 9.30818 13.4781 8.92478C14.2222 8.54138 15.1011 8.34968 16.1148 8.34968C17.0961 8.34968 17.9441 8.54138 18.6589 8.92478C19.3737 9.30818 19.9245 9.84429 20.3111 10.5331C20.6978 11.2219 20.8911 12.0212 20.8911 12.931C20.8911 13.1324 20.818 13.3063 20.6718 13.4525C20.5255 13.5987 20.3517 13.6718 20.1503 13.6718C19.9553 13.6718 19.7847 13.5987 19.6385 13.4525C19.4923 13.3063 19.4192 13.1324 19.4192 12.931C19.4192 11.9887 19.1284 11.2349 18.5468 10.6696C17.9652 10.1042 17.1545 9.82155 16.1148 9.82155C15.387 9.82155 14.7615 9.95151 14.2384 10.2114C13.7153 10.4714 13.3157 10.8337 13.0395 11.2983C12.7633 11.7629 12.6252 12.3072 12.6252 12.931L12.6252 14.1689L15.569 14.1689C16.3553 14.1689 16.9888 14.3899 17.4697 14.8317C17.9506 15.2736 18.191 15.852 18.191 16.5668C18.191 16.8657 18.1309 17.1858 18.0107 17.5269C17.8905 17.8681 17.7296 18.1654 17.5282 18.4188L16.261 20.0272C16.0921 20.2416 15.8906 20.3488 15.6567 20.3488C15.4552 20.3488 15.2814 20.2773 15.1352 20.1344C14.989 19.9914 14.9159 19.8192 14.9159 19.6178C14.9159 19.4293 14.9809 19.2539 15.1108 19.0914L16.2805 17.6195C16.3975 17.4766 16.4917 17.3125 16.5632 17.1273C16.6347 16.9421 16.6704 16.7747 16.6704 16.6253C16.6704 16.3329 16.5729 16.0957 16.378 15.9137C16.183 15.7318 15.9199 15.6408 15.5885 15.6408L12.6252 15.6408L12.6252 17.795C12.6252 17.9964 12.5521 18.1703 12.4059 18.3165C12.2597 18.4627 12.0859 18.5358 11.8844 18.5358C11.683 18.5358 11.5108 18.4627 11.3678 18.3165C11.2248 18.1703 11.1534 17.9964 11.1534 17.795Z" fill="#000000" fill-rule="nonzero" opacity="1" stroke="none"/>
</g>
</g>
</svg>
